<svg xmlns="http://www.w3.org/2000/svg" xmlns:xlink="http://www.w3.org/1999/xlink" viewBox="0 0 314.34 302.37"><defs><style>.cls-1,.cls-78{isolation:isolate;}.cls-2{fill:#f6d6aa;opacity:0.34;}.cls-3{fill:#696884;}.cls-4{fill:#b9a984;}.cls-5,.cls-71,.cls-72{fill:#49486a;}.cls-12,.cls-6,.cls-70{fill:#fff;}.cls-7{fill:#f3b3b6;}.cls-8{fill:#4a4a5f;}.cls-9{fill:#231f20;}.cls-70,.cls-72,.cls-9{opacity:0.3;}.cls-10{fill:url(#linear-gradient);}.cls-11{fill:#faf8f9;}.cls-12{opacity:0;}.cls-13{fill:#fafafb;opacity:0.02;}.cls-14{fill:#f5f4f7;opacity:0.05;}.cls-15{fill:#f0eff3;opacity:0.07;}.cls-16{fill:#ebe9ef;opacity:0.1;}.cls-17{fill:#e6e4ea;opacity:0.12;}.cls-18{fill:#e1dee6;opacity:0.15;}.cls-19{fill:#dcd9e2;opacity:0.17;}.cls-20{fill:#d7d4de;opacity:0.2;}.cls-21{fill:#d2cfd9;opacity:0.22;}.cls-22{fill:#cdcad5;opacity:0.24;}.cls-23{fill:#c8c5d1;opacity:0.27;}.cls-24{fill:#c4c0cd;opacity:0.29;}.cls-25{fill:#bfbbc9;opacity:0.32;}.cls-26{fill:#bab6c5;opacity:0.34;}.cls-27{fill:#b6b1c1;opacity:0.37;}.cls-28{fill:#b1acbd;opacity:0.39;}.cls-29{fill:#aca7b9;opacity:0.41;}.cls-30{fill:#a8a3b5;opacity:0.44;}.cls-31{fill:#a39eb2;opacity:0.46;}.cls-32{fill:#9f99ae;opacity:0.49;}.cls-33{fill:#9a95aa;opacity:0.51;}.cls-34{fill:#9690a7;opacity:0.54;}.cls-35{fill:#928ca3;opacity:0.56;}.cls-36{fill:#8d889f;opacity:0.59;}.cls-37{fill:#89839c;opacity:0.61;}.cls-38{fill:#857f98;opacity:0.63;}.cls-39{fill:#817b95;opacity:0.66;}.cls-40{fill:#7d7791;opacity:0.68;}.cls-41{fill:#78738e;opacity:0.71;}.cls-42{fill:#746f8a;opacity:0.73;}.cls-43{fill:#706b87;opacity:0.76;}.cls-44{fill:#6c6784;opacity:0.78;}.cls-45{fill:#676381;opacity:0.8;}.cls-46{fill:#63607e;opacity:0.83;}.cls-47{fill:#5f5c7b;opacity:0.85;}.cls-48{fill:#5b5978;opacity:0.88;}.cls-49{fill:#585575;opacity:0.9;}.cls-50{fill:#545272;opacity:0.93;}.cls-51{fill:#504f70;opacity:0.95;}.cls-52{fill:#4d4b6d;opacity:0.98;}.cls-53{fill:url(#linear-gradient-2);}.cls-54{fill:#d3daed;}.cls-55{fill:#e5e9f5;}.cls-56{fill:#eef0f8;}.cls-57{fill:#dce1f1;}.cls-58{fill:url(#linear-gradient-3);}.cls-59{fill:#fcc00e;}.cls-60{fill:#f6f8f9;}.cls-61{fill:url(#linear-gradient-4);}.cls-62{fill:#eceef8;}.cls-63{fill:#d7dbf0;}.cls-64{opacity:0.59;mix-blend-mode:multiply;fill:url(#radial-gradient);}.cls-65{fill:#5d629e;}.cls-66{fill:url(#linear-gradient-5);}.cls-67{fill:#99a6d5;}.cls-68{fill:url(#linear-gradient-6);}.cls-69{fill:url(#linear-gradient-7);}.cls-71{opacity:0.2;}.cls-73{fill:url(#linear-gradient-8);}.cls-74{fill:#f09ea3;}.cls-75{fill:url(#linear-gradient-9);}.cls-76{fill:#5a5777;}.cls-77{fill:url(#linear-gradient-10);}.cls-78{fill:#010101;opacity:0.05;}.cls-79{fill:#ca9761;}.cls-80{fill:#ebac55;}.cls-81{fill:#f3b764;}.cls-82{fill:#f0c673;}.cls-83{fill:#f0daaf;}.cls-84{fill:#cab194;}.cls-85{fill:#ac7c47;}.cls-86{fill:#fcf2d2;}.cls-87{fill:#fff6d7;}.cls-88{fill:#5d687f;}</style><linearGradient id="linear-gradient" x1="37.79" y1="136.66" x2="284.08" y2="136.66" gradientUnits="userSpaceOnUse"><stop offset="0" stop-color="#ebe9ec"/><stop offset="1" stop-color="#d3daed"/></linearGradient><linearGradient id="linear-gradient-2" x1="50.55" y1="104.02" x2="115.67" y2="104.02" gradientUnits="userSpaceOnUse"><stop offset="0.01" stop-color="#eff1f9"/><stop offset="0.18" stop-color="#dbdff0"/><stop offset="0.53" stop-color="#b7c0e2"/><stop offset="0.82" stop-color="#a1add8"/><stop offset="1" stop-color="#99a6d5"/></linearGradient><linearGradient id="linear-gradient-3" x1="105.85" y1="88.18" x2="106.8" y2="86.62" gradientUnits="userSpaceOnUse"><stop offset="0" stop-color="#f49719"/><stop offset="1" stop-color="#fcc00e"/></linearGradient><linearGradient id="linear-gradient-4" x1="129.05" y1="125.72" x2="213.31" y2="125.72" gradientUnits="userSpaceOnUse"><stop offset="0" stop-color="#fff"/><stop offset="1" stop-color="#99a6d5"/></linearGradient><radialGradient id="radial-gradient" cx="123.18" cy="6930.87" r="10.76" gradientTransform="translate(0 -3690.27) scale(1 0.55)" gradientUnits="userSpaceOnUse"><stop offset="0.53" stop-color="#49486a"/><stop offset="0.59" stop-color="#706f8a"/><stop offset="0.65" stop-color="#9b9bad"/><stop offset="0.72" stop-color="#bfbfcb"/><stop offset="0.79" stop-color="#dbdbe2"/><stop offset="0.86" stop-color="#efeff2"/><stop offset="0.93" stop-color="#fbfbfc"/><stop offset="1" stop-color="#fff"/></radialGradient><linearGradient id="linear-gradient-5" x1="116.22" y1="81.8" x2="130.15" y2="81.8" gradientUnits="userSpaceOnUse"><stop offset="0" stop-color="#49486a"/><stop offset="0.63" stop-color="#575b8f"/><stop offset="0.98" stop-color="#5d629e"/></linearGradient><linearGradient id="linear-gradient-6" x1="116.82" y1="73.14" x2="129.55" y2="73.14" gradientUnits="userSpaceOnUse"><stop offset="0.02" stop-color="#5d629e"/><stop offset="0.37" stop-color="#575b8f"/><stop offset="1" stop-color="#49486a"/></linearGradient><linearGradient id="linear-gradient-7" x1="117.37" y1="74.06" x2="128.98" y2="74.06" gradientUnits="userSpaceOnUse"><stop offset="0.02" stop-color="#fcc00e"/><stop offset="0.44" stop-color="#f9b112"/><stop offset="1" stop-color="#f49719"/></linearGradient><linearGradient id="linear-gradient-8" x1="129.13" y1="115.45" x2="180.76" y2="115.45" gradientUnits="userSpaceOnUse"><stop offset="0" stop-color="#ebe9ec"/><stop offset="1" stop-color="#99a6d5"/></linearGradient><linearGradient id="linear-gradient-9" x1="142.97" y1="152.21" x2="159.58" y2="152.21" xlink:href="#linear-gradient-5"/><linearGradient id="linear-gradient-10" x1="150.6" y1="139.32" x2="152.68" y2="139.32" xlink:href="#linear-gradient-3"/></defs><title>img-welcom-back</title><g class="cls-1"><g id="Warstwa_2" data-name="Warstwa 2"><g id="Warstwa_1-2" data-name="Warstwa 1"><polygon class="cls-2" points="0 189.36 118.32 120.18 314.34 233.21 195.01 302.37 0 189.36"/><path class="cls-3" d="M208.22,16.62A13,13,0,0,1,216,18.25l30.37,17.29a18.55,18.55,0,0,1,9.27,16.06l-7,69.39a10.79,10.79,0,0,1-8.28,9.43l-11.88,2.78-28.1-17.81A18.54,18.54,0,0,1,191,99.27l8.7-81.76Z"/><path class="cls-4" d="M208.74,19l28.58,16.5a18.53,18.53,0,0,1,9.27,16.06l-7.07,68.61a13.15,13.15,0,0,1-19.66,11.43l-28.55-16.25a18.55,18.55,0,0,1-9.37-16.12L189,30.43A13.16,13.16,0,0,1,208.74,19Z"/><path class="cls-5" d="M143.94,182.53,119.18,197v2.53a6.44,6.44,0,0,0,3.06,5.51L127,208a4.11,4.11,0,0,0,4.29,0l19.22-11.24a6.28,6.28,0,0,0,3-5.36v-2.86Z"/><path class="cls-6" d="M138.05,183.48l-16.29,9.42a5.42,5.42,0,0,0,0,9.25l4.35,2.66a5.83,5.83,0,0,0,6.09,0l18.42-10.76a6.05,6.05,0,0,0-.16-10.44l-.51-.29A11.75,11.75,0,0,0,138.05,183.48Z"/><path class="cls-7" d="M149.58,188.65a5.47,5.47,0,0,0-2.7-4l-.48-.27a10.72,10.72,0,0,0-4-1.33,7.74,7.74,0,0,0-2.87,1l-8.77,5.11a3.57,3.57,0,0,0,0,6.1l2.87,1.76a3.85,3.85,0,0,0,4,0l10.17-6A3.92,3.92,0,0,0,149.58,188.65Z"/><path class="cls-5" d="M165.53,194.29l-24.76,14.5v2.52a6.41,6.41,0,0,0,3.07,5.51l4.74,2.91a4.13,4.13,0,0,0,4.3,0l19.21-11.25a6.27,6.27,0,0,0,3-5.35v-2.87Z"/><path class="cls-6" d="M159.64,195.25l-16.28,9.41a5.41,5.41,0,0,0,0,9.25l4.34,2.67a5.87,5.87,0,0,0,6.1,0l18.42-10.76a6.06,6.06,0,0,0-.16-10.44l-.52-.29A11.73,11.73,0,0,0,159.64,195.25Z"/><path class="cls-7" d="M171.18,200.41a5.51,5.51,0,0,0-2.71-3.95l-.48-.27a11,11,0,0,0-4-1.33,7.83,7.83,0,0,0-2.87,1L152.34,201a3.56,3.56,0,0,0,0,6.09l2.86,1.76a3.85,3.85,0,0,0,4,0l10.18-6A4,4,0,0,0,171.18,200.41Z"/><path class="cls-7" d="M144.66,192.15a5.21,5.21,0,0,1-5.21-5.22V153.16a5.22,5.22,0,0,1,10.43,0v33.77A5.22,5.22,0,0,1,144.66,192.15Z"/><path class="cls-7" d="M166.23,204a5.22,5.22,0,0,1-5.22-5.22V149.35a5.22,5.22,0,1,1,10.43,0v49.42A5.22,5.22,0,0,1,166.23,204Z"/><path class="cls-7" d="M156.41,104.56a4.37,4.37,0,0,1-1.76-8.28l28.11-13.89a14.19,14.19,0,0,0,7.8-10.9l2.91-22.1a4.37,4.37,0,1,1,8.66,1.14l-2.91,22.1a22.91,22.91,0,0,1-12.59,17.59l-28.11,13.89A4.31,4.31,0,0,1,156.41,104.56Z"/><path class="cls-8" d="M211.11,15.07a36.4,36.4,0,0,0-1.91-4.34,26.17,26.17,0,0,0-4.14-6.67c-4.54-4.84-13.5-1.44-14.26,5.12-.32,2.79,1.73,6.13,2.3,8.84.78,3.76.81,7.67,1.18,11.49a7.25,7.25,0,0,0,1.15,3.8c.39.51.91.92,1.29,1.44a7,7,0,0,1,.93,2.28c.6,2.16,1.19,4.32,1.79,6.48.75,2.74,1.6,5.64,3.69,7.56s5.88,2.29,7.56,0a7,7,0,0,0,1-2.37,46.7,46.7,0,0,0,1.26-18C212.33,25.76,212.69,19.75,211.11,15.07Z"/><path class="cls-8" d="M211.42,38.08,226.78,49.4c3.6,2.66,4.1,7.1,4.91,11.51,3.3,17.93-4.44,63.37-4.44,63.37-10.95,4.8-36.51-10.84-41.59-21.66,0,0,5.57-2.86,7.32-12.06,1.2-6.32-1.38-13.81-2.53-19.67h0a10.18,10.18,0,0,1-1-9.52l3.23-8,1-7.75A11.18,11.18,0,0,1,211.42,38.08Z"/><path class="cls-7" d="M204.73,66.49s-7.17-10.78,0-29.55c1-2.53,4.8-9.71,4.8-9.71l10.68,1.38L218.36,43C218,45.91,213.55,66,204.73,66.49Z"/><path class="cls-8" d="M177.39,282.77l-.34,0a2.89,2.89,0,0,1-2.53-3.2l10.57-98.66c.19-1.58,2.57-2.72,4.16-2.53s3.67,1.62,3.49,3.2l-12.49,98.66A2.89,2.89,0,0,1,177.39,282.77Z"/><path class="cls-8" d="M46.46,207.5l-.34,0a2.89,2.89,0,0,1-2.53-3.2l10.57-98.66c.19-1.58,2.59-2.72,4.16-2.53s3.68,1.62,3.49,3.2L49.32,205A2.88,2.88,0,0,1,46.46,207.5Z"/><path class="cls-8" d="M271.61,228.67a2.88,2.88,0,0,1-2.86-2.55L259,151.23c-.18-1.58,1.91-3,3.49-3.2s4,.95,4.16,2.53l7.79,74.89a2.87,2.87,0,0,1-2.53,3.2Z"/><path class="cls-9" d="M189.25,178.36c-1.59-.19-4,.95-4.16,2.53l-2.84,26.49,6.73,3.9,3.76-29.72C192.92,180,190.83,178.55,189.25,178.36Z"/><path class="cls-9" d="M51.31,132.41,58,136.3l3.78-29.84A2.76,2.76,0,0,0,60.32,104L54,107.34Z"/><path class="cls-9" d="M266.68,150.56c-.18-1.58-2.58-2.72-4.16-2.53s-3.67,1.62-3.49,3.2l3.75,28.9,6.58-3.77Z"/><path class="cls-10" d="M116.61,66.56a9.2,9.2,0,0,1,8.32,0l159.15,87.79v4.75a4.29,4.29,0,0,1-2.16,3.72l-76.67,43.93a9.24,9.24,0,0,1-8.32,0L39.84,116a4.1,4.1,0,0,1-2.05-3.6l0-4.64Z"/><path class="cls-11" d="M116.61,61.28a9.24,9.24,0,0,1,8.32,0l157.44,90.86c2.29,1.32,2.29,3.49,0,4.81l-77.12,44.52a9.2,9.2,0,0,1-8.32,0L39.48,110.61c-2.29-1.32-2.29-3.48,0-4.8Z"/><path class="cls-12" d="M92.2,85.87a3.07,3.07,0,0,0-2.74,0l-39.31,22.7a.84.84,0,0,0,0,1.58l25.41,14.67a3,3,0,0,0,2.73,0l39.21-22.76a.84.84,0,0,0,0-1.58Z"/><path class="cls-13" d="M92.16,85.92a3,3,0,0,0-2.72,0L50.3,108.52a.83.83,0,0,0,0,1.57l25.3,14.6a3,3,0,0,0,2.71,0l39-22.65a.84.84,0,0,0,0-1.58Z"/><path class="cls-14" d="M92.12,86a3,3,0,0,0-2.71,0l-39,22.49a.83.83,0,0,0,0,1.57l25.18,14.53a3,3,0,0,0,2.71,0L117.19,102a.83.83,0,0,0,0-1.57Z"/><path class="cls-15" d="M92.08,86a3,3,0,0,0-2.69,0L50.61,108.41a.82.82,0,0,0,0,1.55l25.06,14.47a3,3,0,0,0,2.69,0L117,102a.82.82,0,0,0,0-1.55Z"/><path class="cls-16" d="M92,86.06a3,3,0,0,0-2.68,0l-38.6,22.29a.82.82,0,0,0,0,1.55l24.95,14.4a3,3,0,0,0,2.68,0L116.89,102a.82.82,0,0,0,0-1.55Z"/><path class="cls-17" d="M92,86.11a3,3,0,0,0-2.67,0L50.91,108.3a.82.82,0,0,0,0,1.54l24.84,14.33a2.9,2.9,0,0,0,2.66,0l38.32-22.24a.81.81,0,0,0,0-1.54Z"/><path class="cls-18" d="M92,86.16a3,3,0,0,0-2.66,0L51.07,108.24a.8.8,0,0,0,0,1.53L75.78,124a2.9,2.9,0,0,0,2.66,0l38.14-22.14a.81.81,0,0,0,0-1.53Z"/><path class="cls-19" d="M91.93,86.21a2.92,2.92,0,0,0-2.64,0l-38.07,22a.81.81,0,0,0,0,1.53l24.6,14.2a2.92,2.92,0,0,0,2.64,0l38-22a.81.81,0,0,0,0-1.53Z"/><path class="cls-20" d="M91.89,86.25a3,3,0,0,0-2.63,0L51.37,108.13a.8.8,0,0,0,0,1.52l24.49,14.14a2.93,2.93,0,0,0,2.63,0l37.78-21.93a.8.8,0,0,0,0-1.52Z"/><path class="cls-21" d="M91.85,86.3a2.88,2.88,0,0,0-2.62,0L51.52,108.07a.8.8,0,0,0,0,1.51L75.9,123.66a2.89,2.89,0,0,0,2.61,0l37.61-21.82a.8.8,0,0,0,0-1.52Z"/><path class="cls-22" d="M91.81,86.35a2.84,2.84,0,0,0-2.6,0L51.68,108a.79.79,0,0,0,0,1.5l24.25,14a2.89,2.89,0,0,0,2.61,0L116,101.8a.8.8,0,0,0,0-1.51Z"/><path class="cls-23" d="M91.78,86.4a2.84,2.84,0,0,0-2.6,0L51.83,108a.79.79,0,0,0,0,1.5L76,123.4a2.85,2.85,0,0,0,2.59,0l37.26-21.62a.79.79,0,0,0,0-1.5Z"/><path class="cls-24" d="M91.74,86.44a2.86,2.86,0,0,0-2.58,0L52,107.9a.79.79,0,0,0,0,1.49l24,13.88a2.86,2.86,0,0,0,2.58,0l37.07-21.51a.79.79,0,0,0,0-1.5Z"/><path class="cls-25" d="M91.7,86.49a2.84,2.84,0,0,0-2.57,0l-37,21.36a.78.78,0,0,0,0,1.48l23.91,13.81a2.85,2.85,0,0,0,2.56,0l36.9-21.41a.79.79,0,0,0,0-1.49Z"/><path class="cls-26" d="M91.66,86.54a2.8,2.8,0,0,0-2.55,0L52.29,107.79a.78.78,0,0,0,0,1.48L76.09,123a2.83,2.83,0,0,0,2.55,0l36.72-21.31a.78.78,0,0,0,0-1.47Z"/><path class="cls-27" d="M91.62,86.58a2.84,2.84,0,0,0-2.54,0L52.44,107.74a.78.78,0,0,0,0,1.47l23.68,13.67a2.81,2.81,0,0,0,2.54,0l36.54-21.2a.78.78,0,0,0,0-1.47Z"/><path class="cls-28" d="M91.59,86.63a2.84,2.84,0,0,0-2.54,0L52.6,107.68a.77.77,0,0,0,0,1.46l23.56,13.61a2.79,2.79,0,0,0,2.53,0l36.36-21.1a.77.77,0,0,0,0-1.46Z"/><path class="cls-29" d="M91.55,86.68a2.8,2.8,0,0,0-2.52,0L52.75,107.63a.77.77,0,0,0,0,1.45L76.2,122.62a2.77,2.77,0,0,0,2.52,0l36.18-21a.77.77,0,0,0,0-1.46Z"/><path class="cls-30" d="M91.51,86.73a2.78,2.78,0,0,0-2.51,0L52.9,107.57a.77.77,0,0,0,0,1.45l23.34,13.47a2.75,2.75,0,0,0,2.5,0l36-20.89a.77.77,0,0,0,0-1.45Z"/><path class="cls-31" d="M91.47,86.77a2.8,2.8,0,0,0-2.49,0L53.06,107.51a.76.76,0,0,0,0,1.44l23.21,13.41a2.82,2.82,0,0,0,2.5,0l35.82-20.8a.76.76,0,0,0,0-1.44Z"/><path class="cls-32" d="M91.43,86.82a2.77,2.77,0,0,0-2.48,0L53.21,107.46a.76.76,0,0,0,0,1.43l23.1,13.34a2.77,2.77,0,0,0,2.48,0l35.65-20.69a.76.76,0,0,0,0-1.44Z"/><path class="cls-33" d="M91.4,86.87a2.75,2.75,0,0,0-2.47,0L53.36,107.4a.76.76,0,0,0,0,1.43l23,13.27a2.75,2.75,0,0,0,2.47,0l35.46-20.59a.76.76,0,0,0,0-1.43Z"/><path class="cls-34" d="M91.36,86.92a2.73,2.73,0,0,0-2.46,0L53.51,107.35a.75.75,0,0,0,0,1.41L76.39,122a2.71,2.71,0,0,0,2.45,0l35.29-20.49a.75.75,0,0,0,0-1.42Z"/><path class="cls-35" d="M91.32,87a2.69,2.69,0,0,0-2.44,0L53.67,107.29a.75.75,0,0,0,0,1.41l22.75,13.14a2.71,2.71,0,0,0,2.45,0L114,101.46a.75.75,0,0,0,0-1.42Z"/><path class="cls-36" d="M91.28,87a2.67,2.67,0,0,0-2.43,0l-35,20.22a.75.75,0,0,0,0,1.41l22.64,13.07a2.7,2.7,0,0,0,2.43,0l34.93-20.28a.75.75,0,0,0,0-1.41Z"/><path class="cls-37" d="M91.24,87.06a2.65,2.65,0,0,0-2.42,0L54,107.18a.74.74,0,0,0,0,1.4l22.53,13a2.71,2.71,0,0,0,2.42,0l34.75-20.17a.74.74,0,0,0,0-1.4Z"/><path class="cls-38" d="M91.21,87.11a2.63,2.63,0,0,0-2.41,0l-34.67,20a.74.74,0,0,0,0,1.39l22.41,12.94a2.67,2.67,0,0,0,2.4,0l34.58-20.07a.74.74,0,0,0,0-1.39Z"/><path class="cls-39" d="M91.17,87.15a2.67,2.67,0,0,0-2.4,0L54.28,107.07a.73.73,0,0,0,0,1.38l22.29,12.87a2.67,2.67,0,0,0,2.4,0l34.4-20a.73.73,0,0,0,0-1.38Z"/><path class="cls-40" d="M91.13,87.2a2.63,2.63,0,0,0-2.38,0L54.43,107a.73.73,0,0,0,0,1.38l22.18,12.8a2.63,2.63,0,0,0,2.38,0l34.22-19.86a.73.73,0,0,0,0-1.38Z"/><path class="cls-41" d="M91.09,87.25a2.61,2.61,0,0,0-2.37,0L54.59,107a.72.72,0,0,0,0,1.37l22.06,12.74a2.61,2.61,0,0,0,2.37,0l34-19.76a.73.73,0,0,0,0-1.37Z"/><path class="cls-42" d="M91.05,87.29a2.63,2.63,0,0,0-2.35,0l-34,19.61a.72.72,0,0,0,0,1.36l21.95,12.67a2.6,2.6,0,0,0,2.35,0l33.87-19.66a.72.72,0,0,0,0-1.36Z"/><path class="cls-43" d="M91,87.34a2.63,2.63,0,0,0-2.35,0l-33.78,19.5a.72.72,0,0,0,0,1.36l21.83,12.6a2.63,2.63,0,0,0,2.35,0l33.68-19.55a.72.72,0,0,0,0-1.36Z"/><path class="cls-44" d="M91,87.39a2.61,2.61,0,0,0-2.34,0l-33.59,19.4a.7.7,0,0,0,0,1.34l21.71,12.54a2.58,2.58,0,0,0,2.33,0l33.51-19.45a.71.71,0,0,0,0-1.35Z"/><path class="cls-45" d="M90.94,87.44a2.56,2.56,0,0,0-2.32,0L55.2,106.73a.71.71,0,0,0,0,1.34l21.6,12.47a2.56,2.56,0,0,0,2.32,0l33.33-19.34a.72.72,0,0,0,0-1.35Z"/><path class="cls-46" d="M90.9,87.48a2.61,2.61,0,0,0-2.31,0l-33.24,19.2a.7.7,0,0,0,0,1.33l21.49,12.4a2.52,2.52,0,0,0,2.3,0l33.15-19.24a.71.71,0,0,0,0-1.34Z"/><path class="cls-47" d="M90.86,87.53a2.56,2.56,0,0,0-2.29,0L55.51,106.62c-.64.36-.64,1,0,1.33l21.36,12.33a2.52,2.52,0,0,0,2.3,0l33-19.14a.7.7,0,0,0,0-1.32Z"/><path class="cls-48" d="M90.83,87.58a2.56,2.56,0,0,0-2.29,0l-32.88,19a.7.7,0,0,0,0,1.32l21.25,12.27a2.51,2.51,0,0,0,2.28,0l32.8-19a.7.7,0,0,0,0-1.32Z"/><path class="cls-49" d="M90.79,87.63a2.52,2.52,0,0,0-2.27,0L55.81,106.51a.69.69,0,0,0,0,1.31L77,120a2.52,2.52,0,0,0,2.27,0l32.61-18.93a.69.69,0,0,0,0-1.31Z"/><path class="cls-50" d="M90.75,87.67a2.5,2.5,0,0,0-2.26,0L56,106.45a.69.69,0,0,0,0,1.31l21,12.13a2.48,2.48,0,0,0,2.25,0l32.44-18.83a.69.69,0,0,0,0-1.3Z"/><path class="cls-51" d="M90.71,87.72a2.48,2.48,0,0,0-2.25,0L56.12,106.4a.68.68,0,0,0,0,1.29L77,119.76a2.48,2.48,0,0,0,2.25,0L111.53,101a.69.69,0,0,0,0-1.3Z"/><path class="cls-52" d="M90.67,87.77a2.44,2.44,0,0,0-2.23,0L56.27,106.34a.68.68,0,0,0,0,1.29l20.79,12a2.44,2.44,0,0,0,2.23,0L111.38,101a.68.68,0,0,0,0-1.29Z"/><path class="cls-5" d="M90.63,87.82a2.42,2.42,0,0,0-2.22,0l-32,18.46a.68.68,0,0,0,0,1.29L77.1,119.5a2.42,2.42,0,0,0,2.22,0L111.22,101a.68.68,0,0,0,0-1.29Z"/><path class="cls-53" d="M91.07,85.51a2.82,2.82,0,0,0-2.59,0L50.79,106.7a.45.45,0,0,0-.24.4v.71a.84.84,0,0,0,.42.73l24.28,14a2.87,2.87,0,0,0,2.6,0L115.05,101a1.28,1.28,0,0,0,.62-1.09v-.55Z"/><path class="cls-6" d="M91.07,84.61a2.82,2.82,0,0,0-2.59,0L51.09,106.19c-.72.42-.72,1.09,0,1.5l24.16,14a2.84,2.84,0,0,0,2.6,0L115.14,100a.79.79,0,0,0,0-1.5Z"/><polygon class="cls-54" points="87.73 87.76 108.68 99.86 98.01 105.89 77.15 93.84 87.73 87.76"/><polygon class="cls-55" points="76.1 94.79 85.62 100.33 73.69 107.08 64.28 101.57 76.1 94.79"/><polygon class="cls-56" points="87.31 101.34 96.83 106.89 84.91 113.63 75.5 108.13 87.31 101.34"/><polygon class="cls-57" points="60.28 103.54 83.05 116.62 81.9 117.28 59.17 104.22 60.28 103.54"/><polygon class="cls-57" points="62.45 107.87 74.43 114.74 73.28 115.4 61.35 108.55 62.45 107.87"/><polygon class="cls-58" points="98.3 81.81 116.31 92.06 115.44 93.67 98.3 83.87 96.71 81.95 98.3 81.81"/><polygon class="cls-11" points="98.3 81.81 98.3 83.87 96.71 81.95 98.3 81.81"/><polygon class="cls-5" points="97.08 81.92 96.71 81.95 97.08 82.39 97.08 81.92"/><path class="cls-59" d="M115.9,92.12a1.44,1.44,0,0,0-.65,1.13c0,.41.29.58.65.37a1.42,1.42,0,0,0,.65-1.12C116.55,92.09,116.26,91.92,115.9,92.12Z"/><path class="cls-60" d="M115.9,92.14a1.4,1.4,0,0,0-.64,1.1c0,.4.29.57.64.37a1.41,1.41,0,0,0,.64-1.1C116.54,92.1,116.25,91.93,115.9,92.14Z"/><path class="cls-5" d="M115.9,92.67a.39.39,0,0,0-.18.3c0,.11.08.16.18.1a.39.39,0,0,0,.17-.3C116.07,92.66,116,92.62,115.9,92.67Z"/><path class="cls-12" d="M160.17,102.77l-32.48,18.57a1.05,1.05,0,0,0,0,1.83l50.56,29.19a4.19,4.19,0,0,0,4.18,0l32.48-18.56a1.06,1.06,0,0,0,0-1.83l-50.57-29.2A4.19,4.19,0,0,0,160.17,102.77Z"/><path class="cls-13" d="M160.2,102.8l-32.38,18.51a1.06,1.06,0,0,0,0,1.83l50.41,29.1a4.15,4.15,0,0,0,4.16,0l32.39-18.51a1.05,1.05,0,0,0,0-1.82l-50.42-29.11A4.2,4.2,0,0,0,160.2,102.8Z"/><path class="cls-14" d="M160.24,102.83,128,121.29a1,1,0,0,0,0,1.81l50.26,29a4.16,4.16,0,0,0,4.15,0l32.28-18.45a1.05,1.05,0,0,0,0-1.82l-50.26-29A4.18,4.18,0,0,0,160.24,102.83Z"/><path class="cls-15" d="M160.27,102.86l-32.18,18.4a1,1,0,0,0,0,1.81L178.19,152a4.16,4.16,0,0,0,4.14,0l32.18-18.4a1,1,0,0,0,0-1.81l-50.1-28.93A4.16,4.16,0,0,0,160.27,102.86Z"/><path class="cls-16" d="M160.3,102.89l-32.08,18.34a1,1,0,0,0,0,1.81l49.95,28.84a4.12,4.12,0,0,0,4.12,0l32.09-18.34a1,1,0,0,0,0-1.81L164.43,102.9A4.17,4.17,0,0,0,160.3,102.89Z"/><path class="cls-17" d="M160.34,102.92l-32,18.29a1,1,0,0,0,0,1.8l49.8,28.75a4.13,4.13,0,0,0,4.11,0l32-18.28a1,1,0,0,0,0-1.8l-49.8-28.76A4.16,4.16,0,0,0,160.34,102.92Z"/><path class="cls-18" d="M160.37,103l-31.88,18.23a1,1,0,0,0,0,1.8l49.65,28.66a4.14,4.14,0,0,0,4.1,0l31.88-18.23a1,1,0,0,0,0-1.79L164.47,103A4.14,4.14,0,0,0,160.37,103Z"/><path class="cls-19" d="M160.41,103l-31.79,18.18a1,1,0,0,0,0,1.78l49.5,28.58a4.1,4.1,0,0,0,4.08,0L214,133.36a1,1,0,0,0,0-1.79L164.49,103A4.1,4.1,0,0,0,160.41,103Z"/><path class="cls-20" d="M160.44,103l-31.69,18.12a1,1,0,0,0,0,1.78l49.33,28.49a4.1,4.1,0,0,0,4.08,0l31.69-18.12a1,1,0,0,0,0-1.78L164.51,103A4.1,4.1,0,0,0,160.44,103Z"/><path class="cls-21" d="M160.47,103,128.88,121.1a1,1,0,0,0,0,1.78l49.18,28.4a4.09,4.09,0,0,0,4.06,0l31.59-18.06a1,1,0,0,0,0-1.78l-49.19-28.4A4.11,4.11,0,0,0,160.47,103Z"/><path class="cls-22" d="M160.51,103.07l-31.49,18a1,1,0,0,0,0,1.77l49,28.31a4.09,4.09,0,0,0,4.05,0l31.49-18a1,1,0,0,0,0-1.77l-49-28.31A4.07,4.07,0,0,0,160.51,103.07Z"/><path class="cls-23" d="M160.54,103.11l-31.39,17.94a1,1,0,0,0,0,1.77L178,151a4,4,0,0,0,4,0l31.39-17.94a1,1,0,0,0,0-1.77l-48.87-28.22A4,4,0,0,0,160.54,103.11Z"/><path class="cls-24" d="M160.57,103.14,129.28,121a1,1,0,0,0,0,1.76L178,150.92a4,4,0,0,0,4,0L213.32,133a1,1,0,0,0,0-1.77L164.6,103.14A4.05,4.05,0,0,0,160.57,103.14Z"/><path class="cls-25" d="M160.61,103.17,129.41,121a1,1,0,0,0,0,1.75l48.57,28a4,4,0,0,0,4,0L213.18,133a1,1,0,0,0,0-1.75l-48.57-28A4,4,0,0,0,160.61,103.17Z"/><path class="cls-26" d="M160.64,103.2,129.55,121a1,1,0,0,0,0,1.75L178,150.67a4,4,0,0,0,4,0l31.09-17.77a1,1,0,0,0,0-1.75l-48.41-28A4,4,0,0,0,160.64,103.2Z"/><path class="cls-27" d="M160.68,103.23l-31,17.71a1,1,0,0,0,0,1.75l48.26,27.86a4,4,0,0,0,4,0l31-17.72a1,1,0,0,0,0-1.74l-48.26-27.87A4,4,0,0,0,160.68,103.23Z"/><path class="cls-28" d="M160.71,103.26l-30.9,17.66a1,1,0,0,0,0,1.74l48.11,27.77a4,4,0,0,0,4,0l30.9-17.66a1,1,0,0,0,0-1.74l-48.11-27.78A4,4,0,0,0,160.71,103.26Z"/><path class="cls-29" d="M160.74,103.29l-30.8,17.6a1,1,0,0,0,0,1.74l47.95,27.68a4,4,0,0,0,4,0l30.8-17.61a1,1,0,0,0,0-1.73l-48-27.69A4,4,0,0,0,160.74,103.29Z"/><path class="cls-30" d="M160.78,103.32l-30.7,17.55a1,1,0,0,0,0,1.72l47.8,27.6a4,4,0,0,0,3.95,0l30.7-17.55a1,1,0,0,0,0-1.73l-47.8-27.6A4,4,0,0,0,160.78,103.32Z"/><path class="cls-31" d="M160.81,103.35l-30.6,17.49a1,1,0,0,0,0,1.72l47.64,27.51a4,4,0,0,0,3.94,0l30.6-17.49a1,1,0,0,0,0-1.73l-47.65-27.51A3.94,3.94,0,0,0,160.81,103.35Z"/><path class="cls-32" d="M160.85,103.38l-30.51,17.43a1,1,0,0,0,0,1.72L177.83,150a4,4,0,0,0,3.92,0l30.5-17.44a1,1,0,0,0,0-1.72l-47.49-27.42A3.92,3.92,0,0,0,160.85,103.38Z"/><path class="cls-33" d="M160.88,103.41l-30.4,17.38a1,1,0,0,0,0,1.71l47.34,27.33a3.93,3.93,0,0,0,3.91,0l30.4-17.38a1,1,0,0,0,0-1.71l-47.34-27.34A3.93,3.93,0,0,0,160.88,103.41Z"/><path class="cls-34" d="M160.91,103.44l-30.3,17.32a1,1,0,0,0,0,1.71l47.19,27.24a3.91,3.91,0,0,0,3.89,0L212,132.39a1,1,0,0,0,0-1.7l-47.18-27.25A3.93,3.93,0,0,0,160.91,103.44Z"/><path class="cls-35" d="M161,103.47l-30.21,17.26a1,1,0,0,0,0,1.7l47,27.16a3.92,3.92,0,0,0,3.88,0l30.21-17.27a1,1,0,0,0,0-1.7l-47-27.16A3.9,3.9,0,0,0,161,103.47Z"/><path class="cls-36" d="M161,103.5l-30.11,17.21a1,1,0,0,0,0,1.69l46.88,27.07a3.88,3.88,0,0,0,3.87,0l30.1-17.21a1,1,0,0,0,0-1.69L164.85,103.5A3.88,3.88,0,0,0,161,103.5Z"/><path class="cls-37" d="M161,103.53l-30,17.15a1,1,0,0,0,0,1.69l46.73,27a3.86,3.86,0,0,0,3.85,0l30-17.15a1,1,0,0,0,0-1.69l-46.72-27A3.88,3.88,0,0,0,161,103.53Z"/><path class="cls-38" d="M161.05,103.56l-29.91,17.09a1,1,0,0,0,0,1.69l46.57,26.88a3.86,3.86,0,0,0,3.85,0l29.91-17.1a1,1,0,0,0,0-1.68l-46.57-26.89A3.87,3.87,0,0,0,161.05,103.56Z"/><path class="cls-39" d="M161.08,103.59l-29.81,17a1,1,0,0,0,0,1.68l46.41,26.79a3.83,3.83,0,0,0,3.83,0l29.82-17a1,1,0,0,0,0-1.68l-46.42-26.8A3.85,3.85,0,0,0,161.08,103.59Z"/><path class="cls-40" d="M161.12,103.62l-29.72,17a1,1,0,0,0,0,1.67L177.66,149a3.83,3.83,0,0,0,3.82,0l29.71-17a1,1,0,0,0,0-1.68l-46.26-26.71A3.83,3.83,0,0,0,161.12,103.62Z"/><path class="cls-41" d="M161.15,103.65l-29.61,16.93a1,1,0,0,0,0,1.66l46.11,26.62a3.81,3.81,0,0,0,3.81,0l29.61-16.93a1,1,0,0,0,0-1.66L165,103.66A3.81,3.81,0,0,0,161.15,103.65Z"/><path class="cls-42" d="M161.18,103.68l-29.51,16.87a1,1,0,0,0,0,1.66l46,26.53a3.8,3.8,0,0,0,3.79,0l29.52-16.87a1,1,0,0,0,0-1.66l-46-26.53A3.79,3.79,0,0,0,161.18,103.68Z"/><path class="cls-43" d="M161.22,103.71,131.8,120.52a1,1,0,0,0,0,1.66l45.8,26.44a3.78,3.78,0,0,0,3.78,0l29.42-16.82a1,1,0,0,0,0-1.65L165,103.72A3.78,3.78,0,0,0,161.22,103.71Z"/><path class="cls-44" d="M161.25,103.74,131.93,120.5a1,1,0,0,0,0,1.65l45.65,26.35a3.79,3.79,0,0,0,3.77,0l29.31-16.76a1,1,0,0,0,0-1.65L165,103.75A3.76,3.76,0,0,0,161.25,103.74Z"/><path class="cls-45" d="M161.29,103.77l-29.22,16.7a.94.94,0,0,0,0,1.64l45.5,26.27a3.77,3.77,0,0,0,3.75,0l29.22-16.71a.94.94,0,0,0,0-1.64L165,103.78A3.73,3.73,0,0,0,161.29,103.77Z"/><path class="cls-46" d="M161.32,103.8,132.2,120.44a.94.94,0,0,0,0,1.64l45.33,26.18a3.77,3.77,0,0,0,3.75,0l29.12-16.65a1,1,0,0,0,0-1.64l-45.34-26.17A3.73,3.73,0,0,0,161.32,103.8Z"/><path class="cls-47" d="M161.35,103.83l-29,16.59a.94.94,0,0,0,0,1.63l45.18,26.09a3.76,3.76,0,0,0,3.73,0l29-16.59a.94.94,0,0,0,0-1.64l-45.19-26.08A3.74,3.74,0,0,0,161.35,103.83Z"/><path class="cls-48" d="M161.39,103.86l-28.93,16.53a.94.94,0,0,0,0,1.63l45,26a3.77,3.77,0,0,0,3.72,0l28.92-16.54a.94.94,0,0,0,0-1.63l-45-26A3.7,3.7,0,0,0,161.39,103.86Z"/><path class="cls-49" d="M161.42,103.89,132.6,120.36a.94.94,0,0,0,0,1.63l44.88,25.91a3.72,3.72,0,0,0,3.71,0L210,131.43a.93.93,0,0,0,0-1.62L165.13,103.9A3.7,3.7,0,0,0,161.42,103.89Z"/><path class="cls-50" d="M161.45,103.92l-28.72,16.42a.93.93,0,0,0,0,1.61l44.72,25.83a3.71,3.71,0,0,0,3.69,0l28.73-16.42a.93.93,0,0,0,0-1.61l-44.72-25.82A3.7,3.7,0,0,0,161.45,103.92Z"/><path class="cls-51" d="M161.49,104l-28.63,16.36a.93.93,0,0,0,0,1.61l44.57,25.73a3.69,3.69,0,0,0,3.68,0l28.62-16.36a.93.93,0,0,0,0-1.61L165.17,104A3.69,3.69,0,0,0,161.49,104Z"/><path class="cls-52" d="M161.52,104,133,120.29a.92.92,0,0,0,0,1.6l44.42,25.64a3.65,3.65,0,0,0,3.66,0l28.53-16.31a.92.92,0,0,0,0-1.6L165.19,104A3.67,3.67,0,0,0,161.52,104Z"/><path class="cls-5" d="M161.56,104l-28.43,16.25a.92.92,0,0,0,0,1.6l44.27,25.55a3.64,3.64,0,0,0,3.65,0l28.43-16.25a.92.92,0,0,0,0-1.6L165.21,104A3.64,3.64,0,0,0,161.56,104Z"/><path class="cls-61" d="M160.48,102.12l-31.41,16.57s-.18,2.45.49,2.84l48.13,27.78a4,4,0,0,0,4,0l30.91-17.67c1.28-.79.5-2.84.5-2.84l-48.63-26.69A4,4,0,0,0,160.48,102.12Z"/><path class="cls-62" d="M160.48,100.21l-30.91,17.67a1,1,0,0,0,0,1.74l48.13,27.79a4,4,0,0,0,4,0l30.91-17.67a1,1,0,0,0,0-1.74l-48.13-27.79A4,4,0,0,0,160.48,100.21Z"/><path class="cls-63" d="M158,104.94l-25.67,14.68a.83.83,0,0,0,0,1.44l40,23.08a3.3,3.3,0,0,0,3.3,0l25.67-14.67a.84.84,0,0,0,0-1.45l-40-23.07A3.32,3.32,0,0,0,158,104.94Z"/><path class="cls-64" d="M130.8,91.66c4.2-2.41,4.2-6.36,0-8.77s-11.07-2.42-15.25,0-4.18,6.36,0,8.77S126.59,94.08,130.8,91.66Z"/><path class="cls-65" d="M130,86.43A9.17,9.17,0,0,0,134,78.8V76.09A2.12,2.12,0,0,0,133,74.24a2.15,2.15,0,0,0-2.14,0l-1.91,1.11,1,1.73L131.81,76a.13.13,0,0,1,.14,0,.12.12,0,0,1,.08.12V78.8a7.16,7.16,0,0,1-3.19,6Z"/><path class="cls-66" d="M130.15,73.14H116.22V86.52h0a3.52,3.52,0,0,0,2,2.77A10,10,0,0,0,123,90.45h.3a10.11,10.11,0,0,0,4.78-1.16,3.42,3.42,0,0,0,2-2.89h0Z"/><path class="cls-67" d="M128.11,76c2.72-1.56,2.72-4.12,0-5.68a11,11,0,0,0-9.86,0c-2.71,1.56-2.71,4.12,0,5.68A11,11,0,0,0,128.11,76Z"/><path class="cls-68" d="M127.68,75.73c2.49-1.42,2.49-3.76,0-5.19a10.06,10.06,0,0,0-9,0c-2.47,1.43-2.47,3.77,0,5.19A10,10,0,0,0,127.68,75.73Z"/><path class="cls-69" d="M127.28,76c2.27-1.07,2.27-2.81,0-3.88a10.93,10.93,0,0,0-8.22,0c-2.26,1.07-2.26,2.81,0,3.88A10.93,10.93,0,0,0,127.28,76Z"/><path class="cls-70" d="M128.89,74.53a2.78,2.78,0,0,0-1.61-1,15.3,15.3,0,0,0-8.22,0,2.71,2.71,0,0,0-1.6,1,2.85,2.85,0,0,0,1.6,1.47,10.93,10.93,0,0,0,8.22,0A2.91,2.91,0,0,0,128.89,74.53Z"/><path class="cls-71" d="M167,93.07a4.36,4.36,0,0,0,1.82,8.24,4.2,4.2,0,0,0,2.17-.48l12.62-6.48-9-5.19Z"/><path class="cls-7" d="M165.55,100.22A4.37,4.37,0,0,1,163.73,92l18.58-9.55a4.37,4.37,0,1,1,4,7.77l-18.58,9.55A4.32,4.32,0,0,1,165.55,100.22Z"/><rect class="cls-7" x="182.15" y="116.97" width="10.71" height="2.05" rx="0.47" transform="translate(-32.8 94.62) rotate(-26.13)"/><rect class="cls-7" x="156" y="93.34" width="10.71" height="2.05" rx="0.47" transform="translate(-25.07 80.69) rotate(-26.13)"/><rect class="cls-7" x="154.71" y="96.56" width="10.71" height="2.05" rx="0.47" transform="translate(-26.62 80.45) rotate(-26.13)"/><rect class="cls-7" x="156.47" y="98.24" width="10.71" height="2.05" rx="0.47" transform="translate(-27.18 81.4) rotate(-26.12)"/><rect class="cls-7" x="159.27" y="99.5" width="10.71" height="2.05" rx="0.47" transform="translate(-27.82 113.56) rotate(-35.28)"/><rect class="cls-7" x="164.02" y="98.81" width="10.71" height="2.05" rx="0.47" transform="translate(3.7 205.69) rotate(-63.09)"/><rect class="cls-7" x="187.02" y="113.33" width="10.71" height="2.05" rx="0.47" transform="matrix(0.96, 0.29, -0.29, 0.96, 42.23, -51.6)"/><rect class="cls-7" x="181.65" y="119.8" width="10.71" height="2.05" rx="0.47" transform="matrix(0.87, -0.49, 0.49, 0.87, -35.19, 106.74)"/><rect class="cls-7" x="181.72" y="120.09" width="10.71" height="2.05" rx="0.47" transform="translate(-35.32 106.81) rotate(-29.24)"/><rect class="cls-7" x="184.12" y="121.39" width="10.71" height="2.05" rx="0.47" transform="translate(-35.65 108.15) rotate(-29.24)"/><rect class="cls-7" x="187.41" y="122.05" width="10.71" height="2.05" rx="0.47" transform="translate(-35.93 125.47) rotate(-33.16)"/><path class="cls-72" d="M213,82.78c-12.6-6.33-8.77-8.89-10.29-9.14-3.32-.55-3.2,1-9.54-2.15a7.81,7.81,0,0,1-4.11-7.07v2.3a8.15,8.15,0,0,0,4.11,7.08l5.21,2.27a37,37,0,0,1,5.73,3.12l8.89,5.9a4.93,4.93,0,0,0,7.36-4.29V78.5A5,5,0,0,1,213,82.78Z"/><path class="cls-71" d="M229.06,69.29a4.37,4.37,0,1,0-8.71.63l3.91,18.77c.4,5.5-4.72,12.32-9.46,15.15l-22,12.81,8.86,5,17.65-10.35a23.12,23.12,0,0,0,11.27-21.63Z"/><path class="cls-7" d="M191.43,123.85a4.37,4.37,0,0,1-1.68-8.09l25.47-15.17a14.42,14.42,0,0,0,7-13.5l-1.48-20.42a4.37,4.37,0,1,1,8.71-.63L231,86.46a23.09,23.09,0,0,1-11.28,21.63l-25.47,15.18A4.34,4.34,0,0,1,191.43,123.85Z"/><path class="cls-8" d="M225.41,86.34a5.47,5.47,0,0,1-4.74-5l-1-14.57A5.46,5.46,0,0,1,230.57,66l1,14.57a5.46,5.46,0,0,1-5.05,5.84A6.68,6.68,0,0,1,225.41,86.34Z"/><path class="cls-73" d="M179.68,109.76,130.63,81.44a1,1,0,0,0-1.5.86v37a2.18,2.18,0,0,0,1.09,1.88l49.05,28.32a1,1,0,0,0,1.49-.86v-37A2.15,2.15,0,0,0,179.68,109.76Z"/><path class="cls-62" d="M179.05,110.18,130,81.86a1,1,0,0,0-1.49.86v37a2.16,2.16,0,0,0,1.08,1.87l49,28.32a1,1,0,0,0,1.5-.86v-37A2.18,2.18,0,0,0,179.05,110.18Z"/><path class="cls-63" d="M154.31,112.35c-1.67-1-3-.17-3,1.76a6.74,6.74,0,0,0,3,5.27c1.67,1,3,.17,3-1.76A6.77,6.77,0,0,0,154.31,112.35Z"/><path class="cls-74" d="M218.86,39.13l-.92-10.81-8.41-1.09s-3.83,7.18-4.8,9.71c-.37,1-1.42,4.22-1.72,5.17h0a15.26,15.26,0,0,0,6.75-.44l9.06-2.54Z"/><path class="cls-7" d="M218.86,39.13l-10.52-1.36c-11.59-1.49-14.5-11.42-13-23h0a8.31,8.31,0,0,1,9.29-7.17l18,2.33Z"/><path class="cls-8" d="M230.83,34.4a43.54,43.54,0,0,1-2.91-11.53c-.45-6.53,2.48-13-3-18.28C221,.79,215,.41,209.52.35c-3.67,0-12.86-1.77-14.81,2.82a4.32,4.32,0,0,0-.21,2c.22,3.43,1.23,6.94,3.59,9.42,1.56,1.64,3.76,2.65,5.2,4.39,1.71,2.06,1.16,5,2.65,7.3a33.11,33.11,0,0,0,6.45,7.7c5.64,4.6,4.8,7.92,4.75,15,0,6.31.31,13.51,5.18,17.52A12.57,12.57,0,0,1,224.06,68a14.32,14.32,0,0,1,1.54,3,9.21,9.21,0,0,0,7.72,5,5.69,5.69,0,0,0,4.11-1.29,7.29,7.29,0,0,0,1.75-3.29A33,33,0,0,0,237,47.23c-.92-1.79-2-3.5-2.91-5.3A80.62,80.62,0,0,1,230.83,34.4Z"/><path class="cls-3" d="M194.71,3.17c1.28-3,5.71-3.3,9.63-3.13-3.08.11-6,.8-7,3.15a4.32,4.32,0,0,0-.2,2c.22,3.43,1.22,6.94,3.59,9.43,1.56,1.63,3.75,2.65,5.2,4.38,1.71,2.06,1.16,5,2.65,7.31A32.81,32.81,0,0,0,215.05,34c5.64,4.61,4.79,7.93,4.74,15,0,6.31.31,13.52,5.19,17.53a12.41,12.41,0,0,1,1.74,1.5,14.32,14.32,0,0,1,1.54,3,9.23,9.23,0,0,0,6.56,4.89,7.58,7.58,0,0,1-1.5.11,9.21,9.21,0,0,1-7.72-5,14.32,14.32,0,0,0-1.54-3,12.57,12.57,0,0,0-1.74-1.51c-4.87-4-5.22-11.21-5.18-17.52.05-7.11.89-10.43-4.75-15a33.11,33.11,0,0,1-6.45-7.7c-1.49-2.27-.94-5.25-2.65-7.3-1.44-1.74-3.64-2.75-5.2-4.39-2.36-2.48-3.37-6-3.59-9.42A4.32,4.32,0,0,1,194.71,3.17Z"/><path class="cls-75" d="M143,141.34v17c0,1.23.81,2.46,2.42,3.39a13.09,13.09,0,0,0,11.76,0c1.62-.93,2.43-2.16,2.43-3.39v-17Z"/><path class="cls-76" d="M157.15,144.72c3.24-1.86,3.24-4.9,0-6.77a13.09,13.09,0,0,0-11.76,0c-3.22,1.87-3.22,4.91,0,6.77A13.09,13.09,0,0,0,157.15,144.72Z"/><path class="cls-5" d="M156.62,144.42c2.94-1.7,2.94-4.47,0-6.16a11.9,11.9,0,0,0-10.69,0c-2.93,1.69-2.93,4.46,0,6.16A11.9,11.9,0,0,0,156.62,144.42Z"/><path class="cls-77" d="M151.64,133a1,1,0,0,0-1,1v11.64a14.39,14.39,0,0,0,2.08,0V134A1,1,0,0,0,151.64,133Z"/><path class="cls-54" d="M151.15,145.42l-1.36-4.06v0L147.34,134a1,1,0,0,0-2,.66l1.12,3.35h0l2.49,7.46a12.45,12.45,0,0,0,2.21.22A.77.77,0,0,0,151.15,145.42Z"/><path class="cls-65" d="M156.44,133.59a1.05,1.05,0,0,0-1.31.68l-2.82,8.84h0l-.82,2.56a12.92,12.92,0,0,0,2.26-.24l2.37-7.4h0l1-3.13A1,1,0,0,0,156.44,133.59Z"/><g id="Group_1606" data-name="Group 1606"><g id="Group_506" data-name="Group 506"><path id="Path_543" data-name="Path 543" class="cls-78" d="M230.59,169.88l19.78-1.33L270,158.71l-23.66-10.34Z"/><g id="Group_282" data-name="Group 282"><g id="Group_265" data-name="Group 265"><g id="Group_264" data-name="Group 264"><path id="Path_544" data-name="Path 544" class="cls-79" d="M255.85,157.32l-25.1,12.52V153.47l25.1-12.54Z"/><path id="Path_545" data-name="Path 545" class="cls-80" d="M230.75,169.84l-25.09-12.52V140.93l25.09,12.55Z"/><path id="Path_546" data-name="Path 546" class="cls-81" d="M255.85,140.93l-25.1,12.55-25.09-12.56,25.09-12.54Z"/><g id="Group_261" data-name="Group 261"><path id="Path_547" data-name="Path 547" class="cls-82" d="M230.75,153.54,205.66,141v-.06h.06l25,12.49Z"/></g><g id="Group_262" data-name="Group 262"><path id="Path_548" data-name="Path 548" class="cls-83" d="M230.75,153.54,255.85,141v-.06h-.06l-25,12.49Z"/></g><path id="Path_549" data-name="Path 549" class="cls-84" d="M230.75,153.48l25.1-12.55Z"/><g id="Group_263" data-name="Group 263"><path id="Path_550" data-name="Path 550" class="cls-79" d="M230.75,156.57v-3.09s-1.42,1.11,0,16.36v-3.93C230.2,157.65,230.48,160.08,230.75,156.57Z"/><path id="Path_551" data-name="Path 551" class="cls-85" d="M230.75,168.52V154A82.1,82.1,0,0,0,230.75,168.52Z"/></g></g><path id="Path_552" data-name="Path 552" class="cls-86" d="M219.23,154.32l-3.62-1.81V146l3.62,1.81Z"/><path id="Path_553" data-name="Path 553" class="cls-87" d="M215.6,146l3.62,1.81,25.34-12.46-3.62-1.81Z"/></g><g id="Group_267" data-name="Group 267"><path id="Path_554" data-name="Path 554" class="cls-6" d="M214.17,151.56l-6.33-1.84-.75-4,6.33,1.84Z"/><g id="Group_266" data-name="Group 266"><path id="Path_555" data-name="Path 555" class="cls-88" d="M208.75,149.32h-.15l-.48-2.56h.15Z"/><path id="Path_556" data-name="Path 556" class="cls-88" d="M208.91,149.37h-.07l-.49-2.56h.08Z"/><path id="Path_557" data-name="Path 557" class="cls-88" d="M209.09,149.43H209l-.48-2.56h.08Z"/><path id="Path_558" data-name="Path 558" class="cls-88" d="M209.27,149.48h-.08l-.44-2.58h.07Z"/><path id="Path_559" data-name="Path 559" class="cls-88" d="M209.45,149.53h-.08l-.49-2.56H209Z"/><path id="Path_560" data-name="Path 560" class="cls-88" d="M209.75,149.6h-.15l-.49-2.56h.16Z"/><path id="Path_561" data-name="Path 561" class="cls-88" d="M210.39,149.8h-.08l-.48-2.56h.08Z"/><path id="Path_562" data-name="Path 562" class="cls-88" d="M210.57,149.86h-.08l-.48-2.54h.07Z"/><path id="Path_563" data-name="Path 563" class="cls-88" d="M210.82,149.93h-.15l-.49-2.61h.16Z"/><path id="Path_564" data-name="Path 564" class="cls-88" d="M210,149.68h-.16l-.48-2.56h.15Z"/><path id="Path_565" data-name="Path 565" class="cls-88" d="M210.21,149.75h-.15l-.49-2.56h.16Z"/><path id="Path_566" data-name="Path 566" class="cls-88" d="M211.08,150h-.16l-.48-2.56h.15Z"/><path id="Path_567" data-name="Path 567" class="cls-88" d="M211.25,150.06h-.07l-.49-2.56h.08Z"/><path id="Path_568" data-name="Path 568" class="cls-88" d="M211.43,150.11h-.08l-.48-2.56H211Z"/><path id="Path_569" data-name="Path 569" class="cls-88" d="M211.61,150.16h-.08l-.48-2.56h.08Z"/><path id="Path_570" data-name="Path 570" class="cls-88" d="M211.75,150.21h-.08l-.48-2.56h.07Z"/><path id="Path_571" data-name="Path 571" class="cls-88" d="M212,150.32h-.15l-.49-2.56h.16Z"/><path id="Path_572" data-name="Path 572" class="cls-88" d="M212.75,150.48h-.08l-.48-2.56h.08Z"/><path id="Path_573" data-name="Path 573" class="cls-88" d="M212.91,150.54h-.08l-.48-2.55h.07Z"/><path id="Path_574" data-name="Path 574" class="cls-88" d="M213.16,150.61H213l-.49-2.56h.16Z"/><path id="Path_575" data-name="Path 575" class="cls-88" d="M212.3,150.32l-.16,0-.48-2.56h.15Z"/><path id="Path_576" data-name="Path 576" class="cls-88" d="M212.55,150.43h-.15l-.49-2.56h.16Z"/></g></g><path id="Path_577" data-name="Path 577" class="cls-6" d="M229,158.37l-7.95-4v-3.78l7.95,4Z"/><g id="Group_279" data-name="Group 279"><g id="Group_271" data-name="Group 271"><path id="Path_578" data-name="Path 578" class="cls-88" d="M209.4,154.53l-2.83-1.41a.12.12,0,0,0-.19.09V156a.35.35,0,0,0,.19.28l2.83,1.41a.12.12,0,0,0,.19-.09v-2.83A.4.4,0,0,0,209.4,154.53Zm0,2.88c0,.11-.09.15-.2.1l-2.45-1.26a.37.37,0,0,1-.19-.29v-2.52c0-.11.09-.15.19-.1l2.52,1.26a.38.38,0,0,1,.2.29Z"/><g id="Group_270" data-name="Group 270"><g id="Group_268" data-name="Group 268"><path id="Path_579" data-name="Path 579" class="cls-88" d="M207.47,156.17l-.18-.09v-1.94l.18.09Z"/><path id="Path_580" data-name="Path 580" class="cls-88" d="M207.38,153.93l-.24.37.24.12.24.12Z"/></g><g id="Group_269" data-name="Group 269"><path id="Path_581" data-name="Path 581" class="cls-88" d="M208.68,156.78l-.18-.09v-1.94l.18.09Z"/><path id="Path_582" data-name="Path 582" class="cls-88" d="M208.59,154.54l-.25.36.25.13.24.12Z"/></g></g><path id="Path_583" data-name="Path 583" class="cls-88" d="M206.88,156.15V156l2.2,1.1v.17Z"/></g><g id="Group_273" data-name="Group 273"><path id="Path_584" data-name="Path 584" class="cls-88" d="M213.19,156.43,210.37,155a.12.12,0,0,0-.19.09v2.83a.35.35,0,0,0,.19.28l2.82,1.41c.11.06.19,0,.19-.09v-2.83A.34.34,0,0,0,213.19,156.43Zm.05,2.88c0,.11-.09.15-.2.1l-2.52-1.26a.37.37,0,0,1-.19-.29v-2.54c0-.11.09-.15.19-.1l2.52,1.26a.38.38,0,0,1,.2.29Z"/><g id="Group_272" data-name="Group 272"><path id="Path_585" data-name="Path 585" class="cls-88" d="M212.45,157.84h0a.81.81,0,0,1-.43-.65v-1l.86.44v1C212.88,157.86,212.69,158,212.45,157.84Z"/><path id="Path_586" data-name="Path 586" class="cls-88" d="M212.5,158.86h-.1v-1l.1,0Z"/><path id="Path_587" data-name="Path 587" class="cls-88" d="M212,158.69h0c0-.05,0-.08.1-.05l.66.33a.2.2,0,0,1,.1.15h0Z"/><path id="Path_588" data-name="Path 588" class="cls-88" d="M210.68,155.52v1a.82.82,0,0,0,.44.65h0c.23.12.43,0,.43-.21v-1Zm.78,1.39c0,.19-.15.27-.34.17a.65.65,0,0,1-.35-.51v-.91l.69.34Z"/><path id="Path_589" data-name="Path 589" class="cls-88" d="M211.17,158.2h-.1v-1l.1,0Z"/><path id="Path_590" data-name="Path 590" class="cls-88" d="M210.68,158h0c0-.06,0-.08.11-.05l.66.33a.2.2,0,0,1,.1.15h0Z"/></g></g><g id="Group_278" data-name="Group 278"><path id="Path_591" data-name="Path 591" class="cls-88" d="M217,158.32l-2.82-1.41a.12.12,0,0,0-.19.09v2.83a.35.35,0,0,0,.19.28l2.82,1.41c.11.06.19,0,.19-.09V158.6A.34.34,0,0,0,217,158.32Zm0,2.88c0,.11-.09.15-.2.1L214.27,160a.37.37,0,0,1-.19-.29v-2.52c0-.11.09-.15.19-.1l2.52,1.26a.38.38,0,0,1,.2.29Z"/><g id="Group_277" data-name="Group 277"><g id="Group_275" data-name="Group 275"><g id="Group_274" data-name="Group 274"><path id="Path_592" data-name="Path 592" class="cls-88" d="M215,158.88a.32.32,0,0,1,.3,0,.79.79,0,0,1,.31.26.42.42,0,0,1,.31,0,1,1,0,0,1,.3.27.34.34,0,0,1,.31,0h.07a1.86,1.86,0,0,0-1-1.39c-.51-.26-.94-.07-1,.41h0A.79.79,0,0,1,215,158.88Z"/></g></g><g id="Group_276" data-name="Group 276"><path id="Path_593" data-name="Path 593" class="cls-88" d="M215.42,160.44a.51.51,0,0,1-.26-.4v0m.05,0a.08.08,0,0,1,.06.08v.06a.36.36,0,0,0,.15.23c.09,0,.16,0,.16-.08v-2.19h0a.16.16,0,0,1,.06.08v2.15c0,.13-.12.19-.27.12Z"/></g></g></g></g><g id="Group_280" data-name="Group 280"><path id="Path_594" data-name="Path 594" class="cls-88" d="M232.07,131.16l-6.68,3.33-.21-.1,6.68-3.34Z"/><path id="Path_595" data-name="Path 595" class="cls-88" d="M232.75,131.48l-6.7,3.34-.21-.1,6.68-3.34Z"/><path id="Path_596" data-name="Path 596" class="cls-88" d="M233.38,131.81l-6.63,3.34-.21-.1,6.69-3.34Z"/><path id="Path_597" data-name="Path 597" class="cls-88" d="M234,132.14l-6.68,3.34-.21-.11,6.68-3.33Z"/></g><g id="Group_281" data-name="Group 281"><path id="Path_598" data-name="Path 598" class="cls-88" d="M233.21,146.19l-6.67,3.34-.21-.1,6.67-3.34Z"/><path id="Path_599" data-name="Path 599" class="cls-88" d="M233.87,146.52l-6.68,3.34-.21-.1,6.68-3.34Z"/><path id="Path_600" data-name="Path 600" class="cls-88" d="M234.52,146.85l-6.67,3.34-.21-.11,6.68-3.34Z"/><path id="Path_601" data-name="Path 601" class="cls-88" d="M235.18,147.18l-6.68,3.33-.21-.1,6.68-3.34Z"/></g></g></g></g><g id="Group_1606-2" data-name="Group 1606"><g id="Group_506-2" data-name="Group 506"><path id="Path_543-2" data-name="Path 543" class="cls-78" d="M89.48,192.86l19.78-1.33,19.61-9.84-23.66-10.34Z"/><g id="Group_282-2" data-name="Group 282"><g id="Group_265-2" data-name="Group 265"><g id="Group_264-2" data-name="Group 264"><path id="Path_544-2" data-name="Path 544" class="cls-79" d="M114.74,180.3l-25.1,12.52V176.45l25.1-12.54Z"/><path id="Path_545-2" data-name="Path 545" class="cls-80" d="M89.64,192.82,64.55,180.3V163.91l25.09,12.55Z"/><path id="Path_546-2" data-name="Path 546" class="cls-81" d="M114.74,163.91l-25.1,12.55L64.55,163.9l25.09-12.54Z"/><g id="Group_261-2" data-name="Group 261"><path id="Path_547-2" data-name="Path 547" class="cls-82" d="M89.64,176.52,64.55,164v-.06h.06l25,12.49Z"/></g><g id="Group_262-2" data-name="Group 262"><path id="Path_548-2" data-name="Path 548" class="cls-83" d="M89.64,176.52,114.74,164v-.06h-.06l-25,12.49Z"/></g><path id="Path_549-2" data-name="Path 549" class="cls-84" d="M89.64,176.46l25.1-12.55Z"/><g id="Group_263-2" data-name="Group 263"><path id="Path_550-2" data-name="Path 550" class="cls-79" d="M89.64,179.55v-3.09s-1.42,1.11,0,16.36v-3.93C89.09,180.63,89.37,183.06,89.64,179.55Z"/><path id="Path_551-2" data-name="Path 551" class="cls-85" d="M89.64,191.5V177A82.1,82.1,0,0,0,89.64,191.5Z"/></g></g><path id="Path_552-2" data-name="Path 552" class="cls-86" d="M78.12,177.3l-3.62-1.81V169l3.62,1.81Z"/><path id="Path_553-2" data-name="Path 553" class="cls-87" d="M74.49,169l3.62,1.81,25.34-12.46-3.62-1.81Z"/></g><g id="Group_267-2" data-name="Group 267"><path id="Path_554-2" data-name="Path 554" class="cls-6" d="M73.06,174.54l-6.33-1.84-.75-4,6.33,1.84Z"/><g id="Group_266-2" data-name="Group 266"><path id="Path_555-2" data-name="Path 555" class="cls-88" d="M67.64,172.3h-.15L67,169.74h.15Z"/><path id="Path_556-2" data-name="Path 556" class="cls-88" d="M67.8,172.35h-.07l-.49-2.56h.08Z"/><path id="Path_557-2" data-name="Path 557" class="cls-88" d="M68,172.41H67.9l-.48-2.56h.08Z"/><path id="Path_558-2" data-name="Path 558" class="cls-88" d="M68.16,172.46h-.08l-.44-2.58h.07Z"/><path id="Path_559-2" data-name="Path 559" class="cls-88" d="M68.34,172.51h-.08L67.77,170h.08Z"/><path id="Path_560-2" data-name="Path 560" class="cls-88" d="M68.64,172.58h-.15L68,170h.16Z"/><path id="Path_561-2" data-name="Path 561" class="cls-88" d="M69.28,172.78H69.2l-.48-2.56h.08Z"/><path id="Path_562-2" data-name="Path 562" class="cls-88" d="M69.46,172.84h-.08l-.48-2.54H69Z"/><path id="Path_563-2" data-name="Path 563" class="cls-88" d="M69.71,172.91h-.15l-.49-2.61h.16Z"/><path id="Path_564-2" data-name="Path 564" class="cls-88" d="M68.85,172.66h-.16l-.48-2.56h.15Z"/><path id="Path_565-2" data-name="Path 565" class="cls-88" d="M69.1,172.73H69l-.49-2.56h.16Z"/><path id="Path_566-2" data-name="Path 566" class="cls-88" d="M70,173h-.16l-.48-2.56h.15Z"/><path id="Path_567-2" data-name="Path 567" class="cls-88" d="M70.14,173h-.07l-.49-2.56h.08Z"/><path id="Path_568-2" data-name="Path 568" class="cls-88" d="M70.32,173.09h-.08l-.48-2.56h.08Z"/><path id="Path_569-2" data-name="Path 569" class="cls-88" d="M70.5,173.14h-.08l-.48-2.56H70Z"/><path id="Path_570-2" data-name="Path 570" class="cls-88" d="M70.64,173.19h-.08l-.48-2.56h.07Z"/><path id="Path_571-2" data-name="Path 571" class="cls-88" d="M70.93,173.3h-.15l-.49-2.56h.16Z"/><path id="Path_572-2" data-name="Path 572" class="cls-88" d="M71.64,173.46h-.08l-.48-2.56h.08Z"/><path id="Path_573-2" data-name="Path 573" class="cls-88" d="M71.8,173.52h-.08L71.24,171h.07Z"/><path id="Path_574-2" data-name="Path 574" class="cls-88" d="M72.05,173.59H71.9L71.41,171h.16Z"/><path id="Path_575-2" data-name="Path 575" class="cls-88" d="M71.19,173.3l-.16-.05-.48-2.56h.15Z"/><path id="Path_576-2" data-name="Path 576" class="cls-88" d="M71.44,173.41h-.15l-.49-2.56H71Z"/></g></g><path id="Path_577-2" data-name="Path 577" class="cls-6" d="M87.87,181.35l-8-4v-3.78l8,4Z"/><g id="Group_279-2" data-name="Group 279"><g id="Group_271-2" data-name="Group 271"><path id="Path_578-2" data-name="Path 578" class="cls-88" d="M68.29,177.51l-2.83-1.41a.12.12,0,0,0-.19.09V179a.35.35,0,0,0,.19.28l2.83,1.41a.12.12,0,0,0,.19-.09v-2.83A.4.4,0,0,0,68.29,177.51Zm0,2.88c0,.11-.09.15-.2.1l-2.45-1.26a.37.37,0,0,1-.19-.29v-2.52c0-.11.09-.15.19-.1l2.52,1.26a.35.35,0,0,1,.2.29Z"/><g id="Group_270-2" data-name="Group 270"><g id="Group_268-2" data-name="Group 268"><path id="Path_579-2" data-name="Path 579" class="cls-88" d="M66.36,179.15l-.18-.09v-1.94l.18.09Z"/><path id="Path_580-2" data-name="Path 580" class="cls-88" d="M66.27,176.91l-.24.37.24.12.24.12Z"/></g><g id="Group_269-2" data-name="Group 269"><path id="Path_581-2" data-name="Path 581" class="cls-88" d="M67.57,179.76l-.18-.09v-1.94l.18.09Z"/><path id="Path_582-2" data-name="Path 582" class="cls-88" d="M67.48,177.52l-.25.36.25.13.24.12Z"/></g></g><path id="Path_583-2" data-name="Path 583" class="cls-88" d="M65.77,179.13V179l2.2,1.1v.17Z"/></g><g id="Group_273-2" data-name="Group 273"><path id="Path_584-2" data-name="Path 584" class="cls-88" d="M72.08,179.41,69.26,178a.12.12,0,0,0-.19.09v2.83a.35.35,0,0,0,.19.28l2.82,1.41c.11.06.19,0,.19-.09v-2.83A.34.34,0,0,0,72.08,179.41Zm0,2.88c0,.11-.09.15-.2.1l-2.52-1.26a.37.37,0,0,1-.19-.29V178.3c0-.11.09-.15.19-.1l2.52,1.26a.35.35,0,0,1,.2.29Z"/><g id="Group_272-2" data-name="Group 272"><path id="Path_585-2" data-name="Path 585" class="cls-88" d="M71.34,180.82h0a.83.83,0,0,1-.43-.65v-1l.86.44v1C71.77,180.84,71.58,180.94,71.34,180.82Z"/><path id="Path_586-2" data-name="Path 586" class="cls-88" d="M71.39,181.84h-.1v-1l.1,0Z"/><path id="Path_587-2" data-name="Path 587" class="cls-88" d="M70.91,181.67h0s0-.08.1,0l.66.33a.18.18,0,0,1,.1.15h0Z"/><path id="Path_588-2" data-name="Path 588" class="cls-88" d="M69.57,178.5v1a.84.84,0,0,0,.44.65h0c.23.12.43,0,.43-.21v-1Zm.78,1.39c0,.19-.15.27-.34.17a.64.64,0,0,1-.35-.51v-.91l.69.34Z"/><path id="Path_589-2" data-name="Path 589" class="cls-88" d="M70.06,181.18H70v-1.05l.1.05Z"/><path id="Path_590-2" data-name="Path 590" class="cls-88" d="M69.57,181h0c0-.06,0-.08.11,0l.66.33a.18.18,0,0,1,.1.15h0Z"/></g></g><g id="Group_278-2" data-name="Group 278"><path id="Path_591-2" data-name="Path 591" class="cls-88" d="M75.88,181.3l-2.82-1.41a.12.12,0,0,0-.19.09v2.83a.35.35,0,0,0,.19.28l2.82,1.41c.11.06.19,0,.19-.09v-2.83A.34.34,0,0,0,75.88,181.3Zm0,2.88c0,.11-.09.15-.2.1L73.16,183a.37.37,0,0,1-.19-.29v-2.52c0-.11.09-.15.19-.1l2.52,1.26a.35.35,0,0,1,.2.29Z"/><g id="Group_277-2" data-name="Group 277"><g id="Group_275-2" data-name="Group 275"><g id="Group_274-2" data-name="Group 274"><path id="Path_592-2" data-name="Path 592" class="cls-88" d="M73.9,181.86a.32.32,0,0,1,.3,0,.65.65,0,0,1,.31.26.42.42,0,0,1,.31,0,.86.86,0,0,1,.3.27.34.34,0,0,1,.31,0h.07a1.86,1.86,0,0,0-1-1.39c-.51-.26-.94-.07-1,.41h0A.79.79,0,0,1,73.9,181.86Z"/></g></g><g id="Group_276-2" data-name="Group 276"><path id="Path_593-2" data-name="Path 593" class="cls-88" d="M74.31,183.42a.54.54,0,0,1-.26-.4V183m0,0a.08.08,0,0,1,.06.08v.06a.39.39,0,0,0,.15.23c.09,0,.16,0,.16-.08v-2.19h0a.1.1,0,0,1,.06.08v2.15c0,.13-.12.19-.27.12Z"/></g></g></g></g><g id="Group_280-2" data-name="Group 280"><path id="Path_594-2" data-name="Path 594" class="cls-88" d="M91,154.14l-6.68,3.33-.21-.1L90.75,154Z"/><path id="Path_595-2" data-name="Path 595" class="cls-88" d="M91.64,154.46l-6.7,3.34-.21-.1,6.68-3.34Z"/><path id="Path_596-2" data-name="Path 596" class="cls-88" d="M92.27,154.79l-6.63,3.34-.21-.1,6.69-3.34Z"/><path id="Path_597-2" data-name="Path 597" class="cls-88" d="M92.93,155.12l-6.68,3.34-.21-.11L92.72,155Z"/></g><g id="Group_281-2" data-name="Group 281"><path id="Path_598-2" data-name="Path 598" class="cls-88" d="M92.1,169.17l-6.67,3.34-.21-.1,6.67-3.34Z"/><path id="Path_599-2" data-name="Path 599" class="cls-88" d="M92.76,169.5l-6.68,3.34-.21-.1,6.68-3.34Z"/><path id="Path_600-2" data-name="Path 600" class="cls-88" d="M93.41,169.83l-6.67,3.34-.21-.11,6.68-3.34Z"/><path id="Path_601-2" data-name="Path 601" class="cls-88" d="M94.07,170.16l-6.68,3.33-.21-.1,6.68-3.34Z"/></g></g></g></g><g id="Group_1606-3" data-name="Group 1606"><g id="Group_506-3" data-name="Group 506"><path id="Path_543-3" data-name="Path 543" class="cls-78" d="M196.32,185.33l14.28-1,14.16-7.1-17.08-7.47Z"/><g id="Group_282-3" data-name="Group 282"><g id="Group_265-3" data-name="Group 265"><g id="Group_264-3" data-name="Group 264"><path id="Path_544-3" data-name="Path 544" class="cls-79" d="M214.56,176.26l-18.12,9V173.48l18.12-9Z"/><path id="Path_545-3" data-name="Path 545" class="cls-80" d="M196.44,185.3l-18.11-9V164.43l18.11,9.06Z"/><path id="Path_546-3" data-name="Path 546" class="cls-81" d="M214.56,164.43l-18.12,9.06-18.11-9.07,18.11-9Z"/><g id="Group_261-3" data-name="Group 261"><path id="Path_547-3" data-name="Path 547" class="cls-82" d="M196.44,173.53l-18.11-9.06v0h0l18.07,9Z"/></g><g id="Group_262-3" data-name="Group 262"><path id="Path_548-3" data-name="Path 548" class="cls-83" d="M196.44,173.53l18.12-9.06v0h0l-18.08,9Z"/></g><path id="Path_549-3" data-name="Path 549" class="cls-84" d="M196.44,173.49l18.12-9.06Z"/><g id="Group_263-3" data-name="Group 263"><path id="Path_550-3" data-name="Path 550" class="cls-79" d="M196.44,175.72v-2.23s-1,.8,0,11.81v-2.83C196,176.5,196.24,178.26,196.44,175.72Z"/><path id="Path_551-3" data-name="Path 551" class="cls-85" d="M196.44,184.35v-10.5A57.54,57.54,0,0,0,196.44,184.35Z"/></g></g><path id="Path_552-3" data-name="Path 552" class="cls-86" d="M188.12,174.1l-2.61-1.31v-4.68l2.61,1.3Z"/><path id="Path_553-3" data-name="Path 553" class="cls-87" d="M185.5,168.07l2.62,1.31,18.29-9-2.61-1.31Z"/></g><g id="Group_267-3" data-name="Group 267"><path id="Path_554-3" data-name="Path 554" class="cls-6" d="M184.47,172.11l-4.57-1.33-.54-2.89,4.57,1.33Z"/><g id="Group_266-3" data-name="Group 266"><path id="Path_555-3" data-name="Path 555" class="cls-88" d="M180.56,170.49h-.11l-.35-1.85h.11Z"/><path id="Path_556-3" data-name="Path 556" class="cls-88" d="M180.67,170.52h0l-.35-1.84h.06Z"/><path id="Path_557-3" data-name="Path 557" class="cls-88" d="M180.8,170.57h-.06l-.34-1.85h.06Z"/><path id="Path_558-3" data-name="Path 558" class="cls-88" d="M180.93,170.6h-.06l-.31-1.86h.05Z"/><path id="Path_559-3" data-name="Path 559" class="cls-88" d="M181.06,170.64H181l-.35-1.85h.06Z"/><path id="Path_560-3" data-name="Path 560" class="cls-88" d="M181.28,170.69h-.11l-.35-1.85h.11Z"/><path id="Path_561-3" data-name="Path 561" class="cls-88" d="M181.74,170.83h-.06l-.34-1.84h0Z"/><path id="Path_562-3" data-name="Path 562" class="cls-88" d="M181.87,170.88h-.06l-.34-1.84h.05Z"/><path id="Path_563-3" data-name="Path 563" class="cls-88" d="M182.05,170.93h-.11l-.35-1.89h.11Z"/><path id="Path_564-3" data-name="Path 564" class="cls-88" d="M181.43,170.75h-.12L181,168.9h.11Z"/><path id="Path_565-3" data-name="Path 565" class="cls-88" d="M181.61,170.8h-.11l-.35-1.85h.11Z"/><path id="Path_566-3" data-name="Path 566" class="cls-88" d="M182.24,171h-.12l-.34-1.85h.11Z"/><path id="Path_567-3" data-name="Path 567" class="cls-88" d="M182.36,171h-.05l-.35-1.85H182Z"/><path id="Path_568-3" data-name="Path 568" class="cls-88" d="M182.49,171.06h-.06l-.34-1.85h.06Z"/><path id="Path_569-3" data-name="Path 569" class="cls-88" d="M182.62,171.09h-.06l-.34-1.84h.06Z"/><path id="Path_570-3" data-name="Path 570" class="cls-88" d="M182.72,171.13h-.06l-.34-1.85h.05Z"/><path id="Path_571-3" data-name="Path 571" class="cls-88" d="M182.93,171.21h-.11l-.35-1.85h.12Z"/><path id="Path_572-3" data-name="Path 572" class="cls-88" d="M183.44,171.33h-.05l-.35-1.85h.06Z"/><path id="Path_573-3" data-name="Path 573" class="cls-88" d="M183.56,171.37h-.06l-.34-1.84h.05Z"/><path id="Path_574-3" data-name="Path 574" class="cls-88" d="M183.74,171.42h-.11l-.35-1.85h.11Z"/><path id="Path_575-3" data-name="Path 575" class="cls-88" d="M183.12,171.21l-.12,0-.34-1.84h.11Z"/><path id="Path_576-3" data-name="Path 576" class="cls-88" d="M183.3,171.29h-.11l-.35-1.85H183Z"/></g></g><path id="Path_577-3" data-name="Path 577" class="cls-6" d="M195.16,177l-5.74-2.89v-2.72l5.74,2.88Z"/><g id="Group_279-3" data-name="Group 279"><g id="Group_271-3" data-name="Group 271"><path id="Path_578-3" data-name="Path 578" class="cls-88" d="M181,174.25l-2.05-1a.08.08,0,0,0-.13.07v2a.24.24,0,0,0,.13.2l2.05,1a.08.08,0,0,0,.13-.07v-2A.28.28,0,0,0,181,174.25Zm0,2.08c0,.08-.07.11-.15.07l-1.77-.91a.25.25,0,0,1-.13-.21v-1.82c0-.08.06-.11.13-.07l1.82.91a.27.27,0,0,1,.15.21Z"/><g id="Group_270-3" data-name="Group 270"><g id="Group_268-3" data-name="Group 268"><path id="Path_579-3" data-name="Path 579" class="cls-88" d="M179.63,175.43l-.13-.06V174l.13.06Z"/><path id="Path_580-3" data-name="Path 580" class="cls-88" d="M179.57,173.82l-.18.26.18.09.17.09Z"/></g><g id="Group_269-3" data-name="Group 269"><path id="Path_581-3" data-name="Path 581" class="cls-88" d="M180.51,175.87l-.13-.06v-1.4l.13.06Z"/><path id="Path_582-3" data-name="Path 582" class="cls-88" d="M180.44,174.26l-.18.26.18.09.17.09Z"/></g></g><path id="Path_583-3" data-name="Path 583" class="cls-88" d="M179.21,175.42v-.13l1.59.79v.13Z"/></g><g id="Group_273-3" data-name="Group 273"><path id="Path_584-3" data-name="Path 584" class="cls-88" d="M183.76,175.62l-2-1c-.08,0-.14,0-.14.07v2a.25.25,0,0,0,.14.2l2,1c.08,0,.14,0,.14-.06v-2.05A.26.26,0,0,0,183.76,175.62Zm0,2.08c0,.08-.07.11-.15.07l-1.82-.91a.28.28,0,0,1-.13-.21v-1.83c0-.08.06-.11.13-.07l1.82.91a.27.27,0,0,1,.15.21Z"/><g id="Group_272-3" data-name="Group 272"><path id="Path_585-3" data-name="Path 585" class="cls-88" d="M183.23,176.64h0a.56.56,0,0,1-.31-.47v-.72l.62.32v.72C183.54,176.65,183.4,176.73,183.23,176.64Z"/><path id="Path_586-3" data-name="Path 586" class="cls-88" d="M183.26,177.38h-.07v-.73l.07,0Z"/><path id="Path_587-3" data-name="Path 587" class="cls-88" d="M182.92,177.25h0s0-.06.07,0l.48.23a.19.19,0,0,1,.07.11h0Z"/><path id="Path_588-3" data-name="Path 588" class="cls-88" d="M182,175v.73a.61.61,0,0,0,.32.47h0c.16.08.31,0,.31-.16v-.72Zm.56,1c0,.13-.11.19-.24.12a.45.45,0,0,1-.25-.37v-.65l.49.24Z"/><path id="Path_589-3" data-name="Path 589" class="cls-88" d="M182.3,176.9h-.07v-.76l.07,0Z"/><path id="Path_590-3" data-name="Path 590" class="cls-88" d="M182,176.78h0c0-.05,0-.06.08,0l.48.24a.14.14,0,0,1,.07.11h0Z"/></g></g><g id="Group_278-3" data-name="Group 278"><path id="Path_591-3" data-name="Path 591" class="cls-88" d="M186.51,177l-2-1a.08.08,0,0,0-.14.06v2.05a.26.26,0,0,0,.14.2l2,1a.08.08,0,0,0,.13-.07v-2A.24.24,0,0,0,186.51,177Zm0,2.07c0,.08-.07.11-.15.08l-1.82-.91a.28.28,0,0,1-.14-.21V176.2c0-.08.07-.11.14-.07l1.82.91a.3.3,0,0,1,.15.21Z"/><g id="Group_277-3" data-name="Group 277"><g id="Group_275-3" data-name="Group 275"><g id="Group_274-3" data-name="Group 274"><path id="Path_592-3" data-name="Path 592" class="cls-88" d="M185.08,177.39a.26.26,0,0,1,.21,0,.6.6,0,0,1,.23.19.28.28,0,0,1,.22,0,.79.79,0,0,1,.22.19.28.28,0,0,1,.22,0h0a1.33,1.33,0,0,0-.72-1c-.37-.19-.68-.05-.72.29h0A.66.66,0,0,1,185.08,177.39Z"/></g></g><g id="Group_276-3" data-name="Group 276"><path id="Path_593-3" data-name="Path 593" class="cls-88" d="M185.37,178.52a.42.42,0,0,1-.19-.29v0m0,0a.05.05,0,0,1,0,.06v0a.25.25,0,0,0,.11.17c.07,0,.12,0,.12-.06v-1.58h0a.1.1,0,0,1,0,.06v1.55c0,.09-.09.14-.2.09Z"/></g></g></g></g><g id="Group_280-3" data-name="Group 280"><path id="Path_594-3" data-name="Path 594" class="cls-88" d="M197.39,157.38l-4.82,2.4-.15-.07,4.82-2.41Z"/><path id="Path_595-3" data-name="Path 595" class="cls-88" d="M197.88,157.61,193.05,160l-.16-.07,4.83-2.41Z"/><path id="Path_596-3" data-name="Path 596" class="cls-88" d="M198.34,157.85l-4.79,2.41-.15-.07,4.83-2.42Z"/><path id="Path_597-3" data-name="Path 597" class="cls-88" d="M198.81,158.09,194,160.5l-.15-.08,4.82-2.41Z"/></g><g id="Group_281-3" data-name="Group 281"><path id="Path_598-3" data-name="Path 598" class="cls-88" d="M198.22,168.23l-4.82,2.41-.15-.07,4.81-2.41Z"/><path id="Path_599-3" data-name="Path 599" class="cls-88" d="M198.69,168.47l-4.82,2.41-.15-.07,4.82-2.42Z"/><path id="Path_600-3" data-name="Path 600" class="cls-88" d="M199.16,168.71l-4.81,2.41-.16-.08,4.83-2.41Z"/><path id="Path_601-3" data-name="Path 601" class="cls-88" d="M199.64,168.94l-4.83,2.41-.15-.07,4.83-2.42Z"/></g></g></g></g></g></g></g></svg>