<svg xmlns="http://www.w3.org/2000/svg" xmlns:xlink="http://www.w3.org/1999/xlink" width="456.35" height="681.212" viewBox="0 0 456.35 681.212">
  <defs>
    <clipPath id="clip-path">
      <path id="Path_3728" data-name="Path 3728" d="M406.326-119.771,230.143-18.054a10.533,10.533,0,0,1-9.608-.058L84.11-99.133l-.942-.717c-1.6,1.521-1.308,3.558.942,4.892L220.535-13.937a10.508,10.508,0,0,0,9.608.058L406.326-115.6c2.279-1.312,2.6-3.366.975-4.908A5.268,5.268,0,0,1,406.326-119.771Z" fill="none" clip-rule="evenodd"/>
    </clipPath>
    <clipPath id="clip-path-2">
      <path id="Path_3735" data-name="Path 3735" d="M329.039-306.242l.03-.008Zm.052-.014.05-.012Zm4.952-4.522s0,0,0,0S334.043-310.78,334.043-310.778Zm.022-.058a7.249,7.249,0,0,0,.368-1.568A7.249,7.249,0,0,1,334.065-310.836Zm.37-1.586c.006-.042.01-.086.014-.13C334.445-312.508,334.441-312.464,334.435-312.422Zm.022-.206v0Zm0-.01.006-.074Zm.028-.558v-.08Zm0-53.706-4.368-2.526v-75.654a12,12,0,0,0-5.4-9.362L132.247-565.562a4.869,4.869,0,0,0-2.4-.732c-1.776,0-3,1.414-3,3.852v-.4a4.38,4.38,0,0,1,1.43-3.236,9.188,9.188,0,0,1,6.19-2.4,9.177,9.177,0,0,1,4.594,1.23L329.081-457.562a11.983,11.983,0,0,1,5.4,9.36Z" fill="#c30404" clip-rule="evenodd"/>
    </clipPath>
    <clipPath id="clip-path-3">
      <path id="Path_3750" data-name="Path 3750" d="M327.837-306.094a4.95,4.95,0,0,1-2.468-.66l-.174-.1a4.507,4.507,0,0,0,1.918.48c1.776,0,3-1.416,3-3.854v-59.2l4.368,2.526V-313.2c0,.162-.01.324-.022.484l-.006.074v.01c0,.026-.006.05-.008.076,0,.044-.008.088-.014.13,0,.006,0,.012,0,.018a7.249,7.249,0,0,1-.368,1.568c-.008.018-.014.036-.02.054,0,0,0,0,0,0a7.267,7.267,0,0,1-4.9,4.51l-.05.012-.022.006-.03.008A4.908,4.908,0,0,1,327.837-306.094Z" fill="none" clip-rule="evenodd"/>
    </clipPath>
    <linearGradient id="linear-gradient" x1="0.278" y1="0.358" x2="0.733" y2="0.358" gradientUnits="objectBoundingBox">
      <stop offset="0" stop-color="#afb4c4"/>
      <stop offset="0.1" stop-color="#aab0c2"/>
      <stop offset="0.2" stop-color="#a6acc0"/>
      <stop offset="0.3" stop-color="#a1a8bf"/>
      <stop offset="0.4" stop-color="#9ca4bd"/>
      <stop offset="0.5" stop-color="#98a0bb"/>
      <stop offset="0.6" stop-color="#939cba"/>
      <stop offset="0.7" stop-color="#8e98b8"/>
      <stop offset="0.8" stop-color="#8a94b6"/>
      <stop offset="0.9" stop-color="#8590b5"/>
      <stop offset="1" stop-color="#808cb3"/>
    </linearGradient>
    <clipPath id="clip-path-4">
      <path id="Path_3755" data-name="Path 3755" d="M444.927-302.858c6.281,3.629,11.423,12.532,11.423,19.79L456.018-171.8a8.884,8.884,0,0,1-6.048,8.4l-6.224,2.1c-1.874.47,3.648-4.644,1.181-6.071L233.118-289.661c-6.285-3.634-11.351-12.533-11.256-19.8l1.394-108.093c.034-2.443-4.53-2.865-4.53-2.865l5.285-2.045a17.4,17.4,0,0,1,14.966,1.143Z" fill="none" clip-rule="evenodd"/>
    </clipPath>
    <clipPath id="clip-path-5">
      <path id="Path_3814" data-name="Path 3814" d="M5.644-200.254c0-1.448,0-3.09-.009-3.849,0,0,1.079,1.123,3.3-.045l121.015-63.71c4.4-2.317,11.6-2.317,16,0l65.013,34.247c1.863.983,3.015-1.5,3.3-.212v4.139a4.7,4.7,0,0,1-2.607,4.118L89.947-161.472c-4.4,2.317-11.6,2.315-16,0L8.181-196.231A4.578,4.578,0,0,1,5.644-200.254Z" fill="none" clip-rule="evenodd"/>
    </clipPath>
    <linearGradient id="linear-gradient-2" x1="0.012" y1="0.685" x2="0.47" y2="0.685" gradientUnits="objectBoundingBox">
      <stop offset="0" stop-color="#99a6d4"/>
      <stop offset="0.1" stop-color="#a2aed8"/>
      <stop offset="0.2" stop-color="#abb6dc"/>
      <stop offset="0.3" stop-color="#b3bee0"/>
      <stop offset="0.4" stop-color="#bcc5e3"/>
      <stop offset="0.5" stop-color="#c5cde7"/>
      <stop offset="0.6" stop-color="#cdd5eb"/>
      <stop offset="0.7" stop-color="#ccd4ea"/>
      <stop offset="0.8" stop-color="#bbc5e3"/>
      <stop offset="0.9" stop-color="#aab5dc"/>
      <stop offset="1" stop-color="#99a6d4"/>
    </linearGradient>
  </defs>
  <g id="Group_1664" data-name="Group 1664" transform="translate(-815 -487.212)">
    <g id="Group_1663" data-name="Group 1663" transform="translate(815 1168.424)">
      <path id="Path_3683" data-name="Path 3683" d="M340.4-517.34c9.728-7.712,15.616-21.488,15.568-40.24-.1-42.111-29.9-93.743-66.224-114.7s-66.047-3.712-66.047,38.336c0,28.655,13.84,61.711,34.176,86.543a105.91,105.91,0,0,0-60.927,95.855v26.367L394.092-309.871v-53.5A247.692,247.692,0,0,0,340.4-517.34Z" fill="#f5d5aa"/>
      <path id="Path_3684" data-name="Path 3684" d="M223.293,0a10.3,10.3,0,0,1-5.129-1.25L74.522-86.562c-2.775-1.646-2.758-4.312.033-5.925l185.563-107.07a10.17,10.17,0,0,1,4.987-1.192,10.3,10.3,0,0,1,5.134,1.254l143.587,85.279c2.775,1.646,2.759,4.313-.037,5.925l-185.5,107.1A10.19,10.19,0,0,1,223.293,0Zm41.762-200.563a10.152,10.152,0,0,0-4.97,1.184L75.314-92.762c-2.779,1.6-2.8,4.258-.033,5.9L218.31-1.917a10.221,10.221,0,0,0,5.108,1.25,10.163,10.163,0,0,0,4.971-1.187L413.105-108.5c2.78-1.6,2.8-4.263.034-5.9L270.164-199.317A10.267,10.267,0,0,0,265.055-200.563Z" fill="#fff"/>
      <path id="Path_3685" data-name="Path 3685" d="M223.418-.667a10.221,10.221,0,0,1-5.108-1.25L75.281-86.863c-2.763-1.642-2.746-4.3.033-5.9L260.085-199.379a10.152,10.152,0,0,1,4.97-1.184,10.267,10.267,0,0,1,5.109,1.246L413.139-114.4c2.762,1.637,2.746,4.3-.034,5.9L228.389-1.854A10.163,10.163,0,0,1,223.418-.667ZM265-200.379a10.076,10.076,0,0,0-4.95,1.183L76.072-93.037c-2.771,1.6-2.787,4.242-.037,5.875L218.455-2.579a10.183,10.183,0,0,0,5.088,1.242,10.123,10.123,0,0,0,4.95-1.179L412.418-108.708c2.771-1.6,2.783-4.242.033-5.875l-142.362-84.55A10.186,10.186,0,0,0,265-200.379Z" fill="#fff"/>
      <path id="Path_3686" data-name="Path 3686" d="M223.543-1.338a10.183,10.183,0,0,1-5.088-1.242L76.035-87.162c-2.75-1.633-2.733-4.279.037-5.875L260.051-199.2a10.076,10.076,0,0,1,4.95-1.183,10.186,10.186,0,0,1,5.088,1.246l142.362,84.55c2.75,1.633,2.738,4.279-.033,5.875L228.493-2.517A10.123,10.123,0,0,1,223.543-1.338Zm41.4-198.854a10.084,10.084,0,0,0-4.925,1.175L76.83-93.313c-2.758,1.592-2.775,4.225-.037,5.85L218.6-3.246A10.13,10.13,0,0,0,223.668-2,10.052,10.052,0,0,0,228.6-3.183L411.73-108.917c2.759-1.591,2.775-4.225.038-5.85L270.014-198.954A10.144,10.144,0,0,0,264.947-200.192Z" fill="#fff"/>
      <path id="Path_3687" data-name="Path 3687" d="M223.668-2A10.13,10.13,0,0,1,218.6-3.246L76.793-87.463c-2.738-1.625-2.721-4.258.037-5.85l183.192-105.7a10.084,10.084,0,0,1,4.925-1.175,10.144,10.144,0,0,1,5.067,1.238l141.754,84.187c2.737,1.625,2.721,4.259-.038,5.85L228.6-3.183A10.052,10.052,0,0,1,223.668-2Zm41.225-198a10.054,10.054,0,0,0-4.9,1.17L77.589-93.592c-2.746,1.588-2.762,4.208-.037,5.829l141.2,83.854a10.089,10.089,0,0,0,5.042,1.233A10.056,10.056,0,0,0,228.7-3.846L411.043-109.125c2.746-1.583,2.762-4.2.037-5.825L269.939-198.775A10.117,10.117,0,0,0,264.893-200.008Z" fill="#fff"/>
      <path id="Path_3688" data-name="Path 3688" d="M223.793-2.675a10.089,10.089,0,0,1-5.042-1.233L77.551-87.763c-2.725-1.621-2.708-4.241.037-5.829l182.4-105.246a10.054,10.054,0,0,1,4.9-1.17,10.117,10.117,0,0,1,5.046,1.233L411.08-114.95c2.725,1.621,2.709,4.242-.037,5.825L228.7-3.846A10.056,10.056,0,0,1,223.793-2.675Zm41.05-197.146a10.032,10.032,0,0,0-4.888,1.163L78.347-93.867c-2.733,1.579-2.75,4.192-.037,5.8L218.9-4.571a10.059,10.059,0,0,0,5.021,1.225A9.957,9.957,0,0,0,228.8-4.512L410.36-109.333c2.733-1.575,2.75-4.188.033-5.8L269.864-198.6A10.056,10.056,0,0,0,264.843-199.821Z" fill="#fdfefe"/>
      <path id="Path_3689" data-name="Path 3689" d="M223.918-3.346A10.059,10.059,0,0,1,218.9-4.571L78.31-88.067c-2.713-1.608-2.7-4.221.037-5.8L259.955-198.658a10.032,10.032,0,0,1,4.888-1.163,10.056,10.056,0,0,1,5.021,1.225l140.529,83.463c2.717,1.612,2.7,4.225-.033,5.8L228.8-4.512A9.957,9.957,0,0,1,223.918-3.346Zm40.871-196.291a9.949,9.949,0,0,0-4.867,1.162L79.105-94.142c-2.725,1.571-2.742,4.171-.037,5.775L219.043-5.238a9.99,9.99,0,0,0,5,1.225A9.93,9.93,0,0,0,228.9-5.175L409.672-109.538c2.721-1.574,2.738-4.175.033-5.779l-139.916-83.1A10,10,0,0,0,264.789-199.637Z" fill="#fcfcfd"/>
      <path id="Path_3690" data-name="Path 3690" d="M224.043-4.013a9.99,9.99,0,0,1-5-1.225L79.068-88.367c-2.7-1.6-2.687-4.2.037-5.775L259.922-198.475a9.949,9.949,0,0,1,4.867-1.162,10,10,0,0,1,5,1.224l139.916,83.1c2.705,1.6,2.688,4.205-.033,5.779L228.9-5.175A9.93,9.93,0,0,1,224.043-4.013ZM264.735-199.45a9.889,9.889,0,0,0-4.842,1.154L79.864-94.417c-2.713,1.567-2.729,4.15-.037,5.75L219.189-5.9a9.959,9.959,0,0,0,4.979,1.217,9.907,9.907,0,0,0,4.842-1.154L408.985-109.746c2.712-1.566,2.725-4.154.037-5.754L269.714-198.233A9.957,9.957,0,0,0,264.735-199.45Z" fill="#fbfcfd"/>
      <path id="Path_3691" data-name="Path 3691" d="M224.168-4.683A9.959,9.959,0,0,1,219.189-5.9L79.826-88.667c-2.692-1.6-2.675-4.183.037-5.75L259.893-198.3a9.889,9.889,0,0,1,4.842-1.154,9.957,9.957,0,0,1,4.979,1.217L409.022-115.5c2.688,1.6,2.675,4.188-.037,5.754L229.01-5.838A9.907,9.907,0,0,1,224.168-4.683ZM264.68-199.267a9.872,9.872,0,0,0-4.82,1.15L80.622-94.692c-2.7,1.558-2.717,4.133-.037,5.725l138.75,82.4a9.952,9.952,0,0,0,4.958,1.208,9.82,9.82,0,0,0,4.821-1.15L408.3-109.954c2.7-1.559,2.717-4.138.038-5.729l-138.7-82.371A9.921,9.921,0,0,0,264.68-199.267Z" fill="#f9fafb"/>
      <path id="Path_3692" data-name="Path 3692" d="M224.293-5.354a9.952,9.952,0,0,1-4.958-1.208l-138.75-82.4c-2.679-1.592-2.663-4.167.037-5.725L259.86-198.117a9.872,9.872,0,0,1,4.82-1.15,9.921,9.921,0,0,1,4.959,1.213l138.7,82.371c2.679,1.591,2.662,4.17-.038,5.729L229.114-6.5A9.82,9.82,0,0,1,224.293-5.354Zm40.333-193.725a9.845,9.845,0,0,0-4.8,1.141L81.381-94.967c-2.688,1.55-2.7,4.117-.038,5.7L219.48-7.229a9.884,9.884,0,0,0,4.934,1.208,9.846,9.846,0,0,0,4.8-1.146l178.4-103c2.687-1.555,2.7-4.117.033-5.7L269.564-197.875A9.886,9.886,0,0,0,264.626-199.079Z" fill="#f7f7f9"/>
      <path id="Path_3693" data-name="Path 3693" d="M224.414-6.021a9.884,9.884,0,0,1-4.934-1.208L81.343-89.267c-2.667-1.583-2.65-4.15.038-5.7L259.826-197.938a9.845,9.845,0,0,1,4.8-1.141,9.886,9.886,0,0,1,4.938,1.2l138.083,82.012c2.667,1.584,2.654,4.146-.033,5.7l-178.4,103A9.846,9.846,0,0,1,224.414-6.021ZM264.576-198.9a9.74,9.74,0,0,0-4.779,1.142L82.135-95.242c-2.675,1.542-2.687,4.1-.033,5.675L219.63-7.892a9.827,9.827,0,0,0,4.909,1.2,9.746,9.746,0,0,0,4.779-1.142L406.926-110.371c2.675-1.546,2.692-4.1.034-5.675L269.489-197.7A9.854,9.854,0,0,0,264.576-198.9Z" fill="#f5f6f8"/>
      <path id="Path_3694" data-name="Path 3694" d="M224.539-6.692a9.827,9.827,0,0,1-4.909-1.2L82.1-89.567c-2.654-1.579-2.642-4.133.033-5.675L259.8-197.754a9.74,9.74,0,0,1,4.779-1.142,9.854,9.854,0,0,1,4.913,1.2l137.471,81.65c2.658,1.575,2.641,4.129-.034,5.675L229.318-7.833A9.746,9.746,0,0,1,224.539-6.692Zm39.983-192.016a9.717,9.717,0,0,0-4.758,1.133L82.893-95.517c-2.662,1.533-2.679,4.079-.033,5.646L219.776-8.554a9.8,9.8,0,0,0,4.888,1.2A9.716,9.716,0,0,0,229.422-8.5L406.239-110.579c2.662-1.538,2.679-4.079.037-5.65L269.414-197.513A9.824,9.824,0,0,0,264.522-198.708Z" fill="#f3f4f6"/>
      <path id="Path_3695" data-name="Path 3695" d="M224.664-7.358a9.8,9.8,0,0,1-4.888-1.2L82.86-89.871c-2.646-1.567-2.629-4.113.033-5.646L259.764-197.575a9.717,9.717,0,0,1,4.758-1.133,9.824,9.824,0,0,1,4.892,1.195l136.862,81.284c2.642,1.571,2.625,4.112-.037,5.65L229.422-8.5A9.716,9.716,0,0,1,224.664-7.358Zm39.8-191.167a9.694,9.694,0,0,0-4.738,1.129L83.651-95.792c-2.65,1.529-2.667,4.059-.033,5.621l136.3,80.95a9.715,9.715,0,0,0,4.867,1.192,9.663,9.663,0,0,0,4.733-1.129l176.033-101.63c2.65-1.533,2.667-4.062.034-5.624l-136.25-80.921A9.773,9.773,0,0,0,264.468-198.525Z" fill="#f2f2f3"/>
      <path id="Path_3696" data-name="Path 3696" d="M224.789-8.029a9.715,9.715,0,0,1-4.867-1.192l-136.3-80.95c-2.633-1.562-2.617-4.092.033-5.621L259.73-197.4a9.694,9.694,0,0,1,4.738-1.129,9.773,9.773,0,0,1,4.871,1.192l136.25,80.921c2.633,1.562,2.616,4.091-.034,5.624L229.522-9.158A9.663,9.663,0,0,1,224.789-8.029Zm39.625-190.309a9.608,9.608,0,0,0-4.717,1.126L84.41-96.071c-2.637,1.525-2.654,4.046-.033,5.6L220.068-9.883A9.718,9.718,0,0,0,224.914-8.7a9.65,9.65,0,0,0,4.716-1.125L404.868-111c2.637-1.525,2.654-4.046.033-5.6L269.26-197.154A9.705,9.705,0,0,0,264.414-198.338Z" fill="#efeff1"/>
      <path id="Path_3697" data-name="Path 3697" d="M224.914-8.7a9.718,9.718,0,0,1-4.846-1.183L84.376-90.471c-2.621-1.554-2.6-4.075.033-5.6L259.7-197.212a9.608,9.608,0,0,1,4.717-1.126,9.705,9.705,0,0,1,4.846,1.184L404.9-116.6c2.621,1.554,2.6,4.075-.033,5.6L229.63-9.825A9.65,9.65,0,0,1,224.914-8.7ZM264.36-198.154a9.609,9.609,0,0,0-4.692,1.121L85.168-96.346c-2.629,1.517-2.642,4.025-.033,5.575L220.214-10.546a9.693,9.693,0,0,0,4.825,1.179,9.627,9.627,0,0,0,4.7-1.121L404.18-111.2c2.63-1.517,2.642-4.025.034-5.575l-135.029-80.2A9.686,9.686,0,0,0,264.36-198.154Z" fill="#edecef"/>
      <path id="Path_3698" data-name="Path 3698" d="M225.039-9.367a9.693,9.693,0,0,1-4.825-1.179L85.135-90.771c-2.608-1.55-2.6-4.058.033-5.575l174.5-100.687a9.609,9.609,0,0,1,4.692-1.121,9.686,9.686,0,0,1,4.825,1.179l135.029,80.2c2.608,1.55,2.6,4.058-.034,5.575L229.735-10.488A9.627,9.627,0,0,1,225.039-9.367Zm39.266-188.6a9.574,9.574,0,0,0-4.67,1.113L85.926-96.621c-2.617,1.508-2.633,4.008-.037,5.55L220.364-11.212a9.583,9.583,0,0,0,4.8,1.175,9.556,9.556,0,0,0,4.675-1.117L403.493-111.413c2.617-1.512,2.633-4.008.037-5.55L269.11-196.8A9.658,9.658,0,0,0,264.3-197.967Z" fill="#eae9ed"/>
      <path id="Path_3699" data-name="Path 3699" d="M225.164-10.038a9.583,9.583,0,0,1-4.8-1.175L85.889-91.071c-2.6-1.542-2.579-4.042.037-5.55L259.635-196.854a9.574,9.574,0,0,1,4.67-1.113,9.658,9.658,0,0,1,4.8,1.171l134.42,79.833c2.6,1.542,2.58,4.038-.037,5.55L229.839-11.154A9.556,9.556,0,0,1,225.164-10.038Zm39.091-187.746a9.556,9.556,0,0,0-4.654,1.108L86.685-96.9c-2.6,1.5-2.621,3.987-.037,5.521l133.863,79.5a9.551,9.551,0,0,0,4.779,1.167,9.49,9.49,0,0,0,4.65-1.108l172.871-99.8c2.6-1.5,2.616-3.992.033-5.525L269.035-196.613A9.562,9.562,0,0,0,264.255-197.783Z" fill="#e7e6ea"/>
      <path id="Path_3700" data-name="Path 3700" d="M225.289-10.708a9.551,9.551,0,0,1-4.779-1.167L86.647-91.375c-2.583-1.533-2.567-4.017.037-5.521L259.6-196.675a9.556,9.556,0,0,1,4.654-1.108,9.562,9.562,0,0,1,4.78,1.17l133.808,79.467c2.583,1.533,2.567,4.021-.033,5.525l-172.871,99.8A9.49,9.49,0,0,1,225.289-10.708ZM264.2-197.6a9.453,9.453,0,0,0-4.629,1.1L87.443-97.171c-2.592,1.5-2.608,3.971-.038,5.5l133.25,79.138a9.533,9.533,0,0,0,4.759,1.163,9.448,9.448,0,0,0,4.629-1.1l172.079-99.35c2.592-1.5,2.6-3.971.033-5.5l-133.2-79.1A9.533,9.533,0,0,0,264.2-197.6Z" fill="#e3e3e8"/>
      <path id="Path_3701" data-name="Path 3701" d="M225.414-11.375a9.533,9.533,0,0,1-4.759-1.163L87.405-91.675c-2.571-1.525-2.554-4,.038-5.5l172.129-99.321a9.453,9.453,0,0,1,4.629-1.1,9.533,9.533,0,0,1,4.759,1.163l133.2,79.1c2.571,1.529,2.559,4-.033,5.5L230.043-12.479A9.448,9.448,0,0,1,225.414-11.375Zm38.733-186.037a9.424,9.424,0,0,0-4.608,1.1L88.2-97.446c-2.579,1.488-2.592,3.95-.033,5.471L220.8-13.2a9.5,9.5,0,0,0,4.738,1.158,9.394,9.394,0,0,0,4.6-1.1l171.292-98.892c2.579-1.491,2.6-3.954.033-5.475L268.885-196.254A9.49,9.49,0,0,0,264.147-197.412Z" fill="#dfdee4"/>
      <path id="Path_3702" data-name="Path 3702" d="M225.539-12.046A9.5,9.5,0,0,1,220.8-13.2L88.164-91.975c-2.558-1.521-2.546-3.983.033-5.471l171.342-98.867a9.424,9.424,0,0,1,4.608-1.1,9.49,9.49,0,0,1,4.738,1.158l132.583,78.741c2.562,1.521,2.546,3.984-.033,5.475L230.143-13.146A9.394,9.394,0,0,1,225.539-12.046Zm38.554-185.179a9.386,9.386,0,0,0-4.588,1.092L88.955-97.721c-2.567,1.479-2.583,3.933-.033,5.446L220.947-13.867a9.453,9.453,0,0,0,4.717,1.154,9.394,9.394,0,0,0,4.587-1.1l170.5-98.438c2.567-1.483,2.579-3.933.034-5.45L268.81-196.075A9.45,9.45,0,0,0,264.093-197.225Z" fill="#dbdbe1"/>
      <path id="Path_3703" data-name="Path 3703" d="M225.664-12.712a9.453,9.453,0,0,1-4.717-1.154L88.922-92.275c-2.55-1.512-2.533-3.967.033-5.446l170.55-98.412a9.386,9.386,0,0,1,4.588-1.092,9.45,9.45,0,0,1,4.717,1.15L400.785-117.7c2.545,1.517,2.533,3.967-.034,5.45l-170.5,98.438A9.394,9.394,0,0,1,225.664-12.712Zm38.375-184.33a9.328,9.328,0,0,0-4.567,1.092L89.714-98c-2.554,1.475-2.571,3.913-.033,5.421L221.093-14.529a9.423,9.423,0,0,0,4.7,1.146,9.32,9.32,0,0,0,4.566-1.092l169.709-97.979c2.554-1.475,2.571-3.917.033-5.425L268.735-195.892A9.39,9.39,0,0,0,264.039-197.042Z" fill="#d8d8df"/>
      <path id="Path_3704" data-name="Path 3704" d="M225.789-13.383a9.423,9.423,0,0,1-4.7-1.146L89.68-92.575c-2.537-1.508-2.521-3.946.033-5.421L259.472-195.95a9.328,9.328,0,0,1,4.567-1.092,9.39,9.39,0,0,1,4.7,1.15L400.1-117.879c2.538,1.508,2.521,3.95-.033,5.425L230.355-14.475A9.32,9.32,0,0,1,225.789-13.383Zm38.2-183.471a9.272,9.272,0,0,0-4.546,1.083L90.472-98.275c-2.542,1.471-2.558,3.9-.033,5.4L221.239-15.2a9.352,9.352,0,0,0,4.675,1.142,9.287,9.287,0,0,0,4.546-1.083l168.916-97.526c2.542-1.47,2.559-3.9.034-5.4L268.66-195.713A9.346,9.346,0,0,0,263.989-196.854Z" fill="#d3d4dc"/>
      <path id="Path_3705" data-name="Path 3705" d="M225.914-14.054a9.352,9.352,0,0,1-4.675-1.142L90.439-92.875c-2.525-1.5-2.508-3.929.033-5.4l168.971-97.5a9.272,9.272,0,0,1,4.546-1.083,9.346,9.346,0,0,1,4.671,1.141l130.75,77.651c2.525,1.5,2.508,3.929-.034,5.4L230.46-15.137A9.287,9.287,0,0,1,225.914-14.054Zm38.021-182.617a9.243,9.243,0,0,0-4.525,1.079L91.23-98.55c-2.533,1.463-2.546,3.879-.033,5.371L221.389-15.858a9.282,9.282,0,0,0,4.646,1.137,9.16,9.16,0,0,0,4.52-1.083l168.134-97.067c2.533-1.462,2.55-3.879.033-5.371L268.585-195.533A9.3,9.3,0,0,0,263.935-196.671Z" fill="#cfcfd8"/>
      <path id="Path_3706" data-name="Path 3706" d="M226.035-14.721a9.282,9.282,0,0,1-4.646-1.137L91.2-93.179c-2.512-1.492-2.5-3.908.033-5.371l168.18-97.042a9.243,9.243,0,0,1,4.525-1.079,9.3,9.3,0,0,1,4.65,1.138l130.137,77.291c2.517,1.492,2.5,3.909-.033,5.371L230.555-15.8A9.16,9.16,0,0,1,226.035-14.721ZM263.88-196.483a9.225,9.225,0,0,0-4.5,1.07L91.989-98.825c-2.521,1.454-2.537,3.863-.033,5.346l129.58,76.958a9.3,9.3,0,0,0,4.625,1.129,9.21,9.21,0,0,0,4.5-1.075l167.341-96.612c2.517-1.454,2.534-3.863.03-5.346L268.51-195.354A9.262,9.262,0,0,0,263.88-196.483Z" fill="#c9c9d2"/>
      <path id="Path_3707" data-name="Path 3707" d="M226.16-15.392a9.3,9.3,0,0,1-4.625-1.129L91.955-93.479c-2.5-1.483-2.487-3.892.033-5.346l167.387-96.588a9.225,9.225,0,0,1,4.5-1.07,9.262,9.262,0,0,1,4.63,1.129l129.525,76.929c2.5,1.483,2.487,3.892-.03,5.346L230.664-16.467A9.21,9.21,0,0,1,226.16-15.392ZM263.826-196.3a9.1,9.1,0,0,0-4.479,1.071L92.747-99.1c-2.508,1.45-2.525,3.842-.033,5.321L221.68-17.187a9.221,9.221,0,0,0,4.605,1.129,9.182,9.182,0,0,0,4.483-1.071l166.55-96.158c2.508-1.451,2.521-3.842.033-5.321L268.435-195.175A9.235,9.235,0,0,0,263.826-196.3Z" fill="#c4c4cf"/>
      <path id="Path_3708" data-name="Path 3708" d="M226.285-16.058a9.221,9.221,0,0,1-4.605-1.129L92.714-93.779c-2.492-1.479-2.475-3.871.033-5.321l166.6-96.129a9.1,9.1,0,0,1,4.479-1.071,9.235,9.235,0,0,1,4.609,1.125l128.916,76.567c2.488,1.479,2.475,3.87-.033,5.321L230.768-17.129A9.182,9.182,0,0,1,226.285-16.058Zm37.487-180.055a9.127,9.127,0,0,0-4.458,1.063L93.505-99.375c-2.5,1.442-2.513,3.825-.033,5.3L221.826-17.85a9.192,9.192,0,0,0,4.584,1.121,9.109,9.109,0,0,0,4.462-1.067L396.63-113.5c2.5-1.441,2.513-3.825.034-5.3l-128.3-76.2A9.2,9.2,0,0,0,263.772-196.113Z" fill="#bfbfcb"/>
      <path id="Path_3709" data-name="Path 3709" d="M226.41-16.729a9.192,9.192,0,0,1-4.584-1.121L93.472-94.079c-2.479-1.471-2.463-3.854.033-5.3L259.314-195.05a9.127,9.127,0,0,1,4.458-1.063,9.2,9.2,0,0,1,4.588,1.121l128.3,76.2c2.479,1.471,2.462,3.855-.034,5.3L230.872-17.8A9.109,9.109,0,0,1,226.41-16.729Zm37.312-179.2a9.108,9.108,0,0,0-4.442,1.058L94.264-99.65c-2.488,1.433-2.5,3.8-.033,5.271L221.972-18.513a9.149,9.149,0,0,0,4.563,1.113,9.079,9.079,0,0,0,4.441-1.058L395.943-113.7c2.487-1.433,2.5-3.8.033-5.271L268.285-194.813A9.159,9.159,0,0,0,263.722-195.929Z" fill="#babac8"/>
      <path id="Path_3710" data-name="Path 3710" d="M226.535-17.4a9.149,9.149,0,0,1-4.563-1.113L94.23-94.379c-2.467-1.467-2.454-3.838.033-5.271L259.28-194.871a9.108,9.108,0,0,1,4.442-1.058,9.159,9.159,0,0,1,4.563,1.116l127.691,75.838c2.467,1.467,2.454,3.838-.033,5.271L230.976-18.458A9.079,9.079,0,0,1,226.535-17.4Zm37.133-178.342a9.019,9.019,0,0,0-4.417,1.054L95.022-99.925c-2.475,1.425-2.488,3.788-.033,5.246l127.129,75.5a9.082,9.082,0,0,0,4.542,1.112,9.027,9.027,0,0,0,4.416-1.058L395.26-113.913c2.47-1.429,2.487-3.787.029-5.245L268.21-194.633A9.118,9.118,0,0,0,263.668-195.742Z" fill="#b5b5c3"/>
      <path id="Path_3711" data-name="Path 3711" d="M226.66-18.067a9.082,9.082,0,0,1-4.542-1.112L94.989-94.679c-2.454-1.458-2.442-3.821.033-5.246l164.229-94.763a9.019,9.019,0,0,1,4.417-1.054,9.118,9.118,0,0,1,4.542,1.109l127.079,75.475c2.458,1.458,2.441,3.816-.029,5.245L231.076-19.125A9.027,9.027,0,0,1,226.66-18.067Zm36.954-177.491a8.987,8.987,0,0,0-4.4,1.05L95.776-100.2c-2.458,1.417-2.475,3.767-.029,5.217L222.268-19.842a9.066,9.066,0,0,0,4.517,1.1,8.986,8.986,0,0,0,4.395-1.05l163.392-94.334c2.458-1.421,2.475-3.771.033-5.221l-126.47-75.112A9.09,9.09,0,0,0,263.614-195.558Z" fill="#afafbe"/>
      <path id="Path_3712" data-name="Path 3712" d="M226.785-18.737a9.066,9.066,0,0,1-4.517-1.1L95.747-94.983c-2.446-1.45-2.429-3.8.029-5.217l163.442-94.308a8.987,8.987,0,0,1,4.4-1.05,9.09,9.09,0,0,1,4.521,1.1l126.47,75.112c2.442,1.45,2.425,3.8-.033,5.221L231.18-19.788A8.986,8.986,0,0,1,226.785-18.737ZM263.56-195.371a8.956,8.956,0,0,0-4.375,1.042L96.535-100.475c-2.446,1.412-2.463,3.75-.033,5.192L222.414-20.5a9.024,9.024,0,0,0,4.5,1.1,8.963,8.963,0,0,0,4.375-1.042l162.6-93.879c2.45-1.413,2.462-3.75.033-5.2L268.06-194.271A9.008,9.008,0,0,0,263.56-195.371Z" fill="#aaaab9"/>
      <path id="Path_3713" data-name="Path 3713" d="M226.91-19.408a9.024,9.024,0,0,1-4.5-1.1L96.5-95.283c-2.429-1.442-2.412-3.779.033-5.192l162.65-93.854a8.956,8.956,0,0,1,4.375-1.042,9.008,9.008,0,0,1,4.5,1.1l125.858,74.746c2.429,1.446,2.417,3.783-.033,5.2L231.285-20.45A8.963,8.963,0,0,1,226.91-19.408Zm36.6-175.78a8.93,8.93,0,0,0-4.354,1.038l-161.858,93.4c-2.437,1.408-2.45,3.733-.033,5.171l125.3,74.412a8.948,8.948,0,0,0,4.475,1.1,8.868,8.868,0,0,0,4.354-1.042L393.2-114.538c2.434-1.4,2.45-3.733.029-5.17L267.985-194.092A8.981,8.981,0,0,0,263.505-195.188Z" fill="#a3a3b5"/>
      <path id="Path_3714" data-name="Path 3714" d="M227.035-20.075a8.948,8.948,0,0,1-4.475-1.1L97.26-95.583c-2.417-1.437-2.4-3.763.033-5.171l161.858-93.4a8.93,8.93,0,0,1,4.354-1.038,8.981,8.981,0,0,1,4.48,1.1L393.23-119.708c2.421,1.437,2.4,3.766-.029,5.17L231.389-21.117A8.868,8.868,0,0,1,227.035-20.075ZM263.451-195a8.843,8.843,0,0,0-4.329,1.033L98.051-101.029c-2.425,1.4-2.437,3.716-.033,5.146l124.687,74.05a8.921,8.921,0,0,0,4.455,1.088,8.813,8.813,0,0,0,4.329-1.034l161.025-92.967c2.425-1.4,2.437-3.716.029-5.146L267.91-193.913A8.936,8.936,0,0,0,263.451-195Z" fill="#9c9cae"/>
      <path id="Path_3715" data-name="Path 3715" d="M227.16-20.746a8.921,8.921,0,0,1-4.455-1.088L98.018-95.883c-2.4-1.429-2.392-3.746.033-5.146l161.071-92.938A8.843,8.843,0,0,1,263.451-195a8.936,8.936,0,0,1,4.459,1.087l124.633,74.021c2.408,1.43,2.4,3.746-.029,5.146L231.489-21.779A8.813,8.813,0,0,1,227.16-20.746ZM263.4-194.817a8.816,8.816,0,0,0-4.312,1.029L98.81-101.3c-2.412,1.392-2.429,3.7-.033,5.121L222.851-22.5a8.893,8.893,0,0,0,4.434,1.083,8.859,8.859,0,0,0,4.312-1.029l160.229-92.512c2.413-1.392,2.429-3.7.034-5.121L267.835-193.733A8.9,8.9,0,0,0,263.4-194.817Z" fill="#9696a8"/>
      <path id="Path_3716" data-name="Path 3716" d="M227.285-21.413a8.893,8.893,0,0,1-4.434-1.083L98.776-96.183c-2.4-1.425-2.379-3.729.033-5.121l160.279-92.484a8.816,8.816,0,0,1,4.312-1.029,8.9,8.9,0,0,1,4.434,1.084L391.86-120.075c2.4,1.425,2.379,3.729-.034,5.121L231.6-22.442A8.859,8.859,0,0,1,227.285-21.413Zm36.062-173.216a8.769,8.769,0,0,0-4.292,1.021L99.568-101.579c-2.4,1.387-2.417,3.679-.033,5.091L223-23.163a8.853,8.853,0,0,0,4.413,1.079,8.767,8.767,0,0,0,4.287-1.025l159.442-92.055c2.4-1.387,2.416-3.679.033-5.1l-123.412-73.3A8.863,8.863,0,0,0,263.347-194.629Z" fill="#8e8ea3"/>
      <path id="Path_3717" data-name="Path 3717" d="M227.41-22.083A8.853,8.853,0,0,1,223-23.163L99.535-96.488c-2.383-1.412-2.367-3.7.033-5.091l159.487-92.029a8.769,8.769,0,0,1,4.292-1.021,8.863,8.863,0,0,1,4.413,1.075l123.412,73.3c2.383,1.416,2.371,3.708-.033,5.1L231.7-23.108A8.767,8.767,0,0,1,227.41-22.083Zm35.883-172.363a8.68,8.68,0,0,0-4.267,1.021l-158.7,91.571c-2.391,1.379-2.4,3.658-.033,5.066l122.85,72.962a8.818,8.818,0,0,0,4.387,1.071,8.745,8.745,0,0,0,4.271-1.017l158.654-91.6c2.388-1.379,2.4-3.658.03-5.066l-122.8-72.934A8.76,8.76,0,0,0,263.293-194.446Z" fill="#88889e"/>
      <path id="Path_3718" data-name="Path 3718" d="M227.53-22.754a8.818,8.818,0,0,1-4.387-1.071L100.293-96.787c-2.371-1.408-2.358-3.687.033-5.066l158.7-91.571a8.68,8.68,0,0,1,4.267-1.021,8.76,8.76,0,0,1,4.387,1.075l122.8,72.934c2.37,1.408,2.358,3.687-.03,5.066L231.8-23.771A8.745,8.745,0,0,1,227.53-22.754Zm35.709-171.5a8.648,8.648,0,0,0-4.246,1.012L101.085-102.129c-2.38,1.371-2.392,3.641-.034,5.041l122.242,72.6a8.764,8.764,0,0,0,4.362,1.067,8.623,8.623,0,0,0,4.246-1.017l157.867-91.141c2.375-1.371,2.392-3.642.029-5.042L267.605-193.192A8.728,8.728,0,0,0,263.239-194.258Z" fill="#7f7f98"/>
      <path id="Path_3719" data-name="Path 3719" d="M227.655-23.421a8.764,8.764,0,0,1-4.362-1.067l-122.242-72.6c-2.358-1.4-2.346-3.671.034-5.041l157.908-91.117a8.648,8.648,0,0,1,4.246-1.012,8.728,8.728,0,0,1,4.366,1.066L389.8-120.621c2.363,1.4,2.346,3.671-.029,5.042L231.9-24.438A8.623,8.623,0,0,1,227.655-23.421Zm35.53-170.654a8.66,8.66,0,0,0-4.225,1.008L101.843-102.4c-2.367,1.362-2.383,3.621-.033,5.016L223.439-25.154a8.68,8.68,0,0,0,4.341,1.063,8.673,8.673,0,0,0,4.23-1.008l157.07-90.688c2.367-1.362,2.38-3.624.034-5.016L267.53-193.012A8.667,8.667,0,0,0,263.185-194.075Z" fill="#7a7992"/>
      <path id="Path_3720" data-name="Path 3720" d="M227.78-24.092a8.68,8.68,0,0,1-4.341-1.062L101.81-97.388c-2.35-1.4-2.334-3.654.033-5.016L258.96-193.067a8.66,8.66,0,0,1,4.225-1.008,8.667,8.667,0,0,1,4.345,1.063L389.114-120.8c2.346,1.392,2.333,3.654-.034,5.016L232.01-25.1A8.673,8.673,0,0,1,227.78-24.092Zm35.355-169.8a8.643,8.643,0,0,0-4.209,1L102.6-102.679c-2.35,1.354-2.367,3.6-.029,4.992L223.585-25.817a8.641,8.641,0,0,0,4.32,1.054,8.575,8.575,0,0,0,4.205-1L388.393-116c2.354-1.358,2.371-3.6.033-4.992L267.455-192.833A8.633,8.633,0,0,0,263.135-193.888Z" fill="#71728c"/>
      <path id="Path_3721" data-name="Path 3721" d="M227.9-24.763a8.641,8.641,0,0,1-4.32-1.054L102.568-97.687c-2.338-1.388-2.321-3.637.029-4.992l156.329-90.208a8.643,8.643,0,0,1,4.209-1,8.633,8.633,0,0,1,4.32,1.055l120.971,71.845c2.338,1.388,2.321,3.634-.033,4.992L232.11-25.767A8.575,8.575,0,0,1,227.9-24.763ZM263.08-193.7a8.541,8.541,0,0,0-4.183,1L103.355-102.958c-2.341,1.354-2.354,3.587-.029,4.97l120.4,71.5a8.622,8.622,0,0,0,4.3,1.054,8.546,8.546,0,0,0,4.184-1L387.71-116.2c2.341-1.35,2.354-3.588.029-4.967L267.38-192.654A8.615,8.615,0,0,0,263.08-193.7Z" fill="#696985"/>
      <path id="Path_3722" data-name="Path 3722" d="M228.03-25.429a8.622,8.622,0,0,1-4.3-1.054l-120.4-71.5c-2.325-1.383-2.312-3.616.029-4.97L258.9-192.7a8.541,8.541,0,0,1,4.183-1,8.615,8.615,0,0,1,4.3,1.05l120.359,71.483c2.325,1.379,2.312,3.617-.029,4.967l-155.5,89.775A8.546,8.546,0,0,1,228.03-25.429Zm35-168.088a8.51,8.51,0,0,0-4.162.992l-154.75,89.292c-2.329,1.345-2.342,3.571-.029,4.941L223.876-27.146a8.588,8.588,0,0,0,4.279,1.046,8.505,8.505,0,0,0,4.163-.992l154.7-89.32c2.329-1.342,2.342-3.567.029-4.942L267.3-192.471A8.532,8.532,0,0,0,263.026-193.517Z" fill="#63627e"/>
      <path id="Path_3723" data-name="Path 3723" d="M228.155-26.1a8.588,8.588,0,0,1-4.279-1.046L104.085-98.292c-2.313-1.371-2.3-3.6.029-4.941l154.75-89.292a8.51,8.51,0,0,1,4.162-.992,8.532,8.532,0,0,1,4.279,1.046l119.746,71.117c2.313,1.375,2.3,3.6-.029,4.942l-154.7,89.32A8.505,8.505,0,0,1,228.155-26.1Zm34.817-167.233a8.5,8.5,0,0,0-4.142.987L104.872-103.508c-2.317,1.337-2.333,3.55-.029,4.916L224.022-27.808a8.6,8.6,0,0,0,4.258,1.042,8.437,8.437,0,0,0,4.142-.992l153.913-88.863c2.32-1.337,2.333-3.55.029-4.917L267.23-192.292A8.544,8.544,0,0,0,262.972-193.333Z" fill="#585878"/>
      <path id="Path_3724" data-name="Path 3724" d="M228.28-26.767a8.6,8.6,0,0,1-4.258-1.042L104.843-98.592c-2.3-1.367-2.288-3.579.029-4.916L258.83-192.346a8.5,8.5,0,0,1,4.142-.987,8.544,8.544,0,0,1,4.258,1.041l119.134,70.754c2.3,1.367,2.291,3.58-.029,4.917L232.422-27.758A8.437,8.437,0,0,1,228.28-26.767Z" fill="#4e4f70"/>
      <path id="Path_3725" data-name="Path 3725" d="M267.155-192.112a9.159,9.159,0,0,0-8.354-.055L105.63-103.783c-2.3,1.329-2.32,3.533-.029,4.891L224.172-28.475a9.139,9.139,0,0,0,8.35.054l153.129-88.408c2.3-1.329,2.317-3.533.029-4.892Z" fill="#48486a"/>
      <path id="Path_3726" data-name="Path 3726" d="M269.989-202.213a10.533,10.533,0,0,0-9.613-.062L84.147-100.587c-2.654,1.533-2.671,4.066-.038,5.629L220.535-13.937a10.508,10.508,0,0,0,9.608.058L406.326-115.6c2.65-1.529,2.667-4.062.034-5.629Z" fill="#535367"/>
      <g id="Group_1654" data-name="Group 1654" clip-path="url(#clip-path)">
        <g id="Group_1653" data-name="Group 1653" transform="translate(82.158 -66.625)">
          <path id="Path_3727" data-name="Path 3727" d="M-82.158-614.587h456.35V66.625H-82.158Z" fill="#c5c9dd"/>
        </g>
      </g>
      <path id="Path_3729" data-name="Path 3729" d="M193.526-148.267,316.347-77.633l-6.758,3.558L186.768-144.708Z" fill="#edf0f8"/>
      <path id="Path_3730" data-name="Path 3730" d="M175.922-137.313,298.743-66.679l-6.758,3.558L169.164-133.754Z" fill="#edf0f8"/>
      <path id="Path_3731" data-name="Path 3731" d="M158.318-126.358,213.1-94.933l-6.758,3.558L151.56-122.8Z" fill="#edf0f8"/>
      <path id="Path_3732" data-name="Path 3732" d="M312.293-124.379c15.5-8.9,15.5-23.454,0-32.354s-40.788-8.9-56.2,0-15.412,23.458,0,32.354S296.8-115.483,312.293-124.379Z" fill="#f9e6cc"/>
      <path id="Path_3733" data-name="Path 3733" d="M300.773-130.329c9.506-5.458,9.506-14.389,0-19.85s-25.024-5.457-34.477,0-9.455,14.392,0,19.85S291.266-124.872,300.773-130.329Z" fill="#f5d5aa"/>
      <g id="Group_1656" data-name="Group 1656" clip-path="url(#clip-path-2)">
        <g id="Group_1655" data-name="Group 1655" transform="translate(126.841 -437.286)">
          <path id="Path_3734" data-name="Path 3734" d="M-126.841-243.926h456.35V437.286h-456.35Z" fill="#c5c9dd"/>
        </g>
      </g>
      <path id="Path_3736" data-name="Path 3736" d="M126.841-562.442c0-3.432,2.432-4.836,5.406-3.12L324.713-454.444a12,12,0,0,1,5.4,9.362V-310.23c0,3.432-2.432,4.836-5.4,3.122L132.247-418.23a11.986,11.986,0,0,1-5.406-9.36Z" fill="#f5f7fb"/>
      <path id="Path_3737" data-name="Path 3737" d="M156.143-519.83c-6.988-4.034-12.7-.734-12.7,7.334s5.716,17.972,12.7,22.006,12.706.734,12.706-7.336S163.131-515.8,156.143-519.83Z" fill="#f5d5aa"/>
      <path id="Path_3738" data-name="Path 3738" d="M324.713-454.444,132.247-565.562c-2.974-1.716-5.406-.312-5.406,3.12v14.986L330.117-430.082v-15A12,12,0,0,0,324.713-454.444Z" fill="#535367"/>
      <path id="Path_3739" data-name="Path 3739" d="M312.819-427.416,186.705-500.178l.018-4.04,126.1,72.512Z" fill="#e4e8f4"/>
      <path id="Path_3740" data-name="Path 3740" d="M312.819-411.288,186.705-484.05l.018-4.038,126.1,72.512Z" fill="#e4e8f4"/>
      <path id="Path_3741" data-name="Path 3741" d="M312.819-395.158,186.705-467.92l.018-4.038,126.1,72.512Z" fill="#e4e8f4"/>
      <path id="Path_3742" data-name="Path 3742" d="M312.819-379.028,186.705-451.79l.018-4.038,126.1,72.51Z" fill="#e4e8f4"/>
      <path id="Path_3743" data-name="Path 3743" d="M312.819-362.9,186.705-435.662l.018-4.038,126.1,72.512Z" fill="#e4e8f4"/>
      <path id="Path_3744" data-name="Path 3744" d="M312.819-346.768,186.705-419.532l.018-4.038,126.1,72.512Z" fill="#e4e8f4"/>
      <path id="Path_3745" data-name="Path 3745" d="M259.873-361.278,186.705-403.4l.018-4.038,73.15,41.878Z" fill="#e4e8f4"/>
      <path id="Path_3746" data-name="Path 3746" d="M137.9-493.1v63.2l36.49,21.068v-63.2Z" fill="#f5d5aa"/>
      <path id="Path_3747" data-name="Path 3747" d="M159.311-541.558c-1.428-.826-2.6-.15-2.6,1.5a5.765,5.765,0,0,0,2.6,4.5c1.43.826,2.6.15,2.6-1.5A5.759,5.759,0,0,0,159.311-541.558Z" fill="#fff"/>
      <path id="Path_3748" data-name="Path 3748" d="M327.837-306.094a4.945,4.945,0,0,1-2.468-.66l-.174-.1.174.1a4.95,4.95,0,0,0,2.468.66,4.908,4.908,0,0,0,1.2-.148A4.908,4.908,0,0,1,327.837-306.094Zm1.232-.156.022-.006Zm.072-.018a7.267,7.267,0,0,0,4.9-4.51A7.267,7.267,0,0,1,329.141-306.268Zm4.9-4.514c.006-.018.012-.036.02-.054C334.057-310.818,334.051-310.8,334.045-310.782Zm.388-1.622c0-.006,0-.012,0-.018S334.433-312.41,334.433-312.4Zm.016-.148c0-.026.006-.05.008-.076C334.455-312.6,334.451-312.578,334.449-312.552Zm.008-.078v-.008Zm.006-.082c.012-.16.02-.322.022-.484C334.483-313.034,334.475-312.872,334.463-312.712Z" fill="#d2d2d2"/>
      <g id="Group_1658" data-name="Group 1658" clip-path="url(#clip-path-3)">
        <g id="Group_1657" data-name="Group 1657" transform="translate(126.841 -437.286)">
          <path id="Path_3749" data-name="Path 3749" d="M-126.841-243.926h456.35V437.286h-456.35Z" fill="url(#linear-gradient)"/>
        </g>
      </g>
      <path id="Path_3751" data-name="Path 3751" d="M312.819-379.028l-24.762-14.286a7.257,7.257,0,0,1,2.038.748l22.724,13.138Z" fill="#bec1ca"/>
      <path id="Path_3752" data-name="Path 3752" d="M312.819-362.9l-33.83-19.518v-4.226l33.83,19.454Z" fill="#bec1ca"/>
      <path id="Path_3753" data-name="Path 3753" d="M312.819-346.768l-41.034-23.676a3.131,3.131,0,0,1,1.072-.754l2.84-1.206,37.122,21.346Z" fill="#bec1ca"/>
      <g id="Group_1660" data-name="Group 1660" clip-path="url(#clip-path-4)">
        <g id="Group_1659" data-name="Group 1659" transform="translate(218.726 -292.455)">
          <path id="Path_3754" data-name="Path 3754" d="M-218.726-388.757h456.35V292.455h-456.35Z" fill="#b8b8ce"/>
        </g>
      </g>
      <path id="Path_3756" data-name="Path 3756" d="M435.691-297.583c6.281,3.629,11.423,12.542,11.423,19.79v109.1c0,7.258-5.142,10.227-11.423,6.6L223.883-284.386c-6.286-3.629-11.352-12.533-11.262-19.791l1.4-108.094c.1-7.257,5.313-10.227,11.6-6.593Z" fill="#f5f7fb"/>
      <path id="Path_3757" data-name="Path 3757" d="M426.669-273.846l-.038,10.08L303.3-335.238V-345.57Z" fill="#e4e8f4"/>
      <path id="Path_3758" data-name="Path 3758" d="M426.669-249.468l-.038,10.08L303.3-310.861v-10.331Z" fill="#e4e8f4"/>
      <path id="Path_3759" data-name="Path 3759" d="M426.669-225.091l-.038,10.08L303.3-286.483v-10.332Z" fill="#e4e8f4"/>
      <path id="Path_3760" data-name="Path 3760" d="M373.682-231.191l-.038,10.085L303.3-261.418v-10.331Z" fill="#e4e8f4"/>
      <path id="Path_3761" data-name="Path 3761" d="M81.3-152.642a18.822,18.822,0,0,1-8.526-1.853L3.515-190.978c-4.687-2.469-4.687-6.509,0-8.978l128.917-67.871a18.808,18.808,0,0,1,8.522-1.85,18.829,18.829,0,0,1,8.526,1.852l69.258,36.484c4.687,2.469,4.687,6.509,0,8.978L89.821-154.492A18.821,18.821,0,0,1,81.3-152.642Zm59.537-116.947a18.782,18.782,0,0,0-8.5,1.844L3.742-200.045c-4.678,2.463-4.678,6.493,0,8.956L72.825-154.7a18.752,18.752,0,0,0,8.506,1.848,18.789,18.789,0,0,0,8.5-1.844l128.594-67.7c4.676-2.463,4.676-6.493,0-8.956L149.34-267.743A18.769,18.769,0,0,0,140.836-269.589Z" fill="#fff"/>
      <path id="Path_3762" data-name="Path 3762" d="M81.33-152.85a18.752,18.752,0,0,1-8.506-1.848L3.74-191.089c-4.675-2.463-4.675-6.493,0-8.956l128.595-67.7a18.782,18.782,0,0,1,8.5-1.844,18.769,18.769,0,0,1,8.5,1.846l69.084,36.393c4.676,2.463,4.676,6.493,0,8.956L89.83-154.694A18.789,18.789,0,0,1,81.33-152.85ZM140.717-269.5a18.709,18.709,0,0,0-8.477,1.84L3.968-200.131c-4.664,2.455-4.664,6.474,0,8.931l68.911,36.3a18.707,18.707,0,0,0,8.483,1.845,18.714,18.714,0,0,0,8.479-1.843l128.27-67.529c4.666-2.455,4.666-6.476,0-8.933L149.2-267.66A18.723,18.723,0,0,0,140.717-269.5Z" fill="#fff"/>
      <path id="Path_3763" data-name="Path 3763" d="M81.36-153.055a18.707,18.707,0,0,1-8.483-1.845L3.965-191.2c-4.662-2.457-4.662-6.476,0-8.931L132.24-267.663a18.709,18.709,0,0,1,8.477-1.84,18.723,18.723,0,0,1,8.483,1.843l68.911,36.3c4.664,2.457,4.664,6.478,0,8.933L89.839-154.9A18.714,18.714,0,0,1,81.36-153.055ZM140.6-269.416a18.685,18.685,0,0,0-8.459,1.836L4.193-200.219c-4.653,2.448-4.653,6.459,0,8.91L72.928-155.1a18.685,18.685,0,0,0,8.463,1.84,18.661,18.661,0,0,0,8.456-1.838L217.8-222.458c4.653-2.45,4.655-6.459,0-8.91l-68.737-36.21A18.671,18.671,0,0,0,140.6-269.416Z" fill="#fff"/>
      <path id="Path_3764" data-name="Path 3764" d="M81.391-153.261a18.685,18.685,0,0,1-8.463-1.84L4.193-191.309c-4.653-2.451-4.653-6.462,0-8.91L132.141-267.58a18.685,18.685,0,0,1,8.459-1.836,18.671,18.671,0,0,1,8.461,1.838l68.737,36.21c4.653,2.451,4.651,6.46,0,8.91L89.848-155.1A18.661,18.661,0,0,1,81.391-153.261ZM140.48-269.33a18.634,18.634,0,0,0-8.436,1.834L4.421-200.308c-4.642,2.445-4.644,6.443,0,8.888L72.982-155.3a18.606,18.606,0,0,0,8.441,1.834,18.615,18.615,0,0,0,8.434-1.831l127.626-67.191c4.641-2.442,4.641-6.441,0-8.887l-68.564-36.116A18.621,18.621,0,0,0,140.48-269.33Z" fill="#fff"/>
      <path id="Path_3765" data-name="Path 3765" d="M81.423-153.469a18.606,18.606,0,0,1-8.441-1.834L4.418-191.42c-4.642-2.445-4.639-6.443,0-8.888L132.044-267.5a18.634,18.634,0,0,1,8.436-1.834,18.621,18.621,0,0,1,8.441,1.836l68.564,36.116c4.639,2.446,4.639,6.445,0,8.887L89.857-155.3A18.615,18.615,0,0,1,81.423-153.469Zm58.938-115.772a18.567,18.567,0,0,0-8.414,1.827L4.646-200.4c-4.63,2.438-4.63,6.426,0,8.865L73.034-155.5a18.58,18.58,0,0,0,8.418,1.83,18.579,18.579,0,0,0,8.413-1.828l127.3-67.02c4.629-2.438,4.631-6.426,0-8.865l-68.388-36.025A18.561,18.561,0,0,0,140.361-269.241Z" fill="#fff"/>
      <path id="Path_3766" data-name="Path 3766" d="M81.452-153.674a18.58,18.58,0,0,1-8.418-1.83L4.644-191.531c-4.628-2.439-4.628-6.427,0-8.865l127.3-67.018a18.567,18.567,0,0,1,8.414-1.827,18.561,18.561,0,0,1,8.42,1.829l68.388,36.025c4.631,2.439,4.629,6.427,0,8.865L89.866-155.5A18.579,18.579,0,0,1,81.452-153.674Zm58.792-115.481a18.529,18.529,0,0,0-8.394,1.823L4.871-200.483c-4.617,2.431-4.619,6.411,0,8.843l68.217,35.935a18.55,18.55,0,0,0,8.4,1.823,18.537,18.537,0,0,0,8.393-1.821l126.977-66.849c4.619-2.433,4.619-6.411,0-8.843L148.642-267.33A18.526,18.526,0,0,0,140.244-269.155Z" fill="#fdfefe"/>
      <path id="Path_3767" data-name="Path 3767" d="M81.484-153.882a18.55,18.55,0,0,1-8.4-1.823L4.869-191.64c-4.617-2.432-4.615-6.412,0-8.843L131.85-267.332a18.529,18.529,0,0,1,8.394-1.823,18.526,18.526,0,0,1,8.4,1.825L216.856-231.4c4.617,2.432,4.617,6.41,0,8.843L89.877-155.7A18.537,18.537,0,0,1,81.484-153.882Zm58.64-115.187a18.454,18.454,0,0,0-8.37,1.82L5.1-200.571c-4.606,2.426-4.606,6.394,0,8.82l68.041,35.842a18.462,18.462,0,0,0,8.377,1.822,18.5,18.5,0,0,0,8.371-1.818l126.655-66.68c4.6-2.424,4.608-6.394,0-8.82L148.5-267.247A18.463,18.463,0,0,0,140.124-269.069Z" fill="#fcfcfd"/>
      <path id="Path_3768" data-name="Path 3768" d="M81.515-154.087a18.462,18.462,0,0,1-8.377-1.822L5.1-191.751c-4.606-2.426-4.606-6.394,0-8.82l126.657-66.678a18.454,18.454,0,0,1,8.37-1.82,18.463,18.463,0,0,1,8.376,1.822L216.543-231.4c4.606,2.426,4.6,6.4,0,8.82L89.886-155.9A18.5,18.5,0,0,1,81.515-154.087Zm58.49-114.893a18.437,18.437,0,0,0-8.351,1.813L5.322-200.659c-4.592,2.419-4.594,6.377,0,8.8L73.189-156.11a18.442,18.442,0,0,0,8.355,1.815,18.441,18.441,0,0,0,8.35-1.813l126.333-66.508c4.594-2.42,4.594-6.377,0-8.8l-67.87-35.752A18.429,18.429,0,0,0,140.005-268.98Z" fill="#fdfefe"/>
      <path id="Path_3769" data-name="Path 3769" d="M81.545-154.295a18.442,18.442,0,0,1-8.355-1.815L5.322-191.862c-4.594-2.42-4.592-6.378,0-8.8l126.332-66.508a18.437,18.437,0,0,1,8.351-1.813,18.429,18.429,0,0,1,8.355,1.815l67.87,35.752c4.592,2.42,4.592,6.377,0,8.8L89.895-156.108A18.441,18.441,0,0,1,81.545-154.295Zm58.34-114.6a18.372,18.372,0,0,0-8.328,1.809L5.549-200.746c-4.583,2.412-4.583,6.361,0,8.775l67.694,35.659a18.4,18.4,0,0,0,8.335,1.811A18.363,18.363,0,0,0,89.9-156.31l126.01-66.339c4.581-2.412,4.583-6.361,0-8.775L148.22-267.083A18.391,18.391,0,0,0,139.885-268.894Z" fill="#f9fafb"/>
      <path id="Path_3770" data-name="Path 3770" d="M81.576-154.5a18.4,18.4,0,0,1-8.335-1.811L5.547-191.971c-4.581-2.414-4.581-6.363,0-8.775l126.008-66.339a18.372,18.372,0,0,1,8.328-1.809,18.391,18.391,0,0,1,8.335,1.811l67.694,35.659c4.583,2.414,4.581,6.363,0,8.775L89.9-156.31A18.363,18.363,0,0,1,81.576-154.5Zm58.192-114.307A18.343,18.343,0,0,0,131.461-267L5.775-200.834c-4.57,2.4-4.572,6.344,0,8.752L73.3-156.513a18.334,18.334,0,0,0,8.312,1.805,18.337,18.337,0,0,0,8.306-1.8L215.6-222.68c4.572-2.405,4.572-6.344,0-8.752L148.08-267A18.345,18.345,0,0,0,139.768-268.808Z" fill="#f8f9fb"/>
      <path id="Path_3771" data-name="Path 3771" d="M81.608-154.708a18.334,18.334,0,0,1-8.312-1.805L5.773-192.082c-4.57-2.408-4.567-6.347,0-8.752L131.461-267a18.343,18.343,0,0,1,8.307-1.805A18.345,18.345,0,0,1,148.08-267L215.6-231.432c4.57,2.408,4.57,6.347,0,8.752L89.913-156.511A18.337,18.337,0,0,1,81.608-154.708Zm58.041-114.011a18.266,18.266,0,0,0-8.285,1.8L6-200.922c-4.558,2.4-4.558,6.327,0,8.729l67.347,35.478a18.289,18.289,0,0,0,8.29,1.8,18.311,18.311,0,0,0,8.287-1.8l125.362-66c4.56-2.4,4.56-6.33,0-8.731l-67.347-35.476A18.3,18.3,0,0,0,139.649-268.719Z" fill="#f7f7f9"/>
      <path id="Path_3772" data-name="Path 3772" d="M81.637-154.914a18.289,18.289,0,0,1-8.29-1.8L6-192.193c-4.558-2.4-4.558-6.328,0-8.729l125.364-66a18.266,18.266,0,0,1,8.285-1.8,18.3,18.3,0,0,1,8.292,1.8l67.347,35.476c4.558,2.4,4.558,6.33,0,8.731l-125.362,66A18.311,18.311,0,0,1,81.637-154.914Zm57.892-113.719a18.242,18.242,0,0,0-8.264,1.795L6.225-201.011c-4.547,2.4-4.547,6.314,0,8.709L73.4-156.916a18.271,18.271,0,0,0,8.269,1.8,18.251,18.251,0,0,0,8.265-1.794l125.039-65.83c4.548-2.393,4.548-6.311,0-8.706L147.8-266.836A18.23,18.23,0,0,0,139.529-268.633Z" fill="#f7f7f9"/>
      <path id="Path_3773" data-name="Path 3773" d="M81.668-155.12a18.271,18.271,0,0,1-8.269-1.8L6.225-192.3c-4.547-2.4-4.547-6.314,0-8.709l125.04-65.827a18.242,18.242,0,0,1,8.264-1.795,18.23,18.23,0,0,1,8.27,1.8l67.173,35.386c4.548,2.4,4.548,6.313,0,8.706L89.933-156.914A18.251,18.251,0,0,1,81.668-155.12Zm57.744-113.427a18.185,18.185,0,0,0-8.244,1.791L6.453-201.1c-4.536,2.387-4.536,6.295,0,8.684l67,35.293a18.177,18.177,0,0,0,8.249,1.793,18.174,18.174,0,0,0,8.242-1.791l124.717-65.656c4.534-2.389,4.536-6.3,0-8.687l-67-35.293A18.2,18.2,0,0,0,139.412-268.547Z" fill="#f4f4f6"/>
      <path id="Path_3774" data-name="Path 3774" d="M81.7-155.327a18.177,18.177,0,0,1-8.249-1.793l-67-35.293c-4.533-2.389-4.533-6.3,0-8.684l124.715-65.659a18.185,18.185,0,0,1,8.244-1.791,18.2,18.2,0,0,1,8.247,1.793l67,35.293c4.536,2.389,4.534,6.3,0,8.687L89.942-157.118A18.174,18.174,0,0,1,81.7-155.327ZM139.293-268.46a18.156,18.156,0,0,0-8.222,1.786L6.678-201.186c-4.525,2.381-4.525,6.279,0,8.662l66.827,35.2a18.151,18.151,0,0,0,8.227,1.788,18.151,18.151,0,0,0,8.222-1.786l124.393-65.488c4.524-2.381,4.524-6.279,0-8.662l-66.827-35.2A18.142,18.142,0,0,0,139.293-268.46Z" fill="#f2f3f5"/>
      <path id="Path_3775" data-name="Path 3775" d="M81.729-155.533a18.151,18.151,0,0,1-8.227-1.788l-66.827-35.2c-4.522-2.383-4.522-6.281,0-8.662l124.393-65.488a18.156,18.156,0,0,1,8.222-1.786,18.142,18.142,0,0,1,8.226,1.788l66.827,35.2c4.522,2.383,4.522,6.281,0,8.662L89.951-157.319A18.151,18.151,0,0,1,81.729-155.533Zm57.444-112.839a18.1,18.1,0,0,0-8.2,1.781L6.9-201.274c-4.511,2.377-4.513,6.264,0,8.641l66.651,35.11a18.122,18.122,0,0,0,8.206,1.783,18.085,18.085,0,0,0,8.2-1.781l124.071-65.317c4.513-2.377,4.513-6.264,0-8.641l-66.653-35.11A18.11,18.11,0,0,0,139.173-268.372Z" fill="#f1f0f3"/>
      <path id="Path_3776" data-name="Path 3776" d="M81.761-155.74a18.122,18.122,0,0,1-8.206-1.783L6.9-192.633c-4.513-2.377-4.511-6.264,0-8.641l124.07-65.317a18.1,18.1,0,0,1,8.2-1.781,18.11,18.11,0,0,1,8.207,1.783l66.653,35.11c4.511,2.377,4.511,6.264,0,8.641L89.96-157.521A18.085,18.085,0,0,1,81.761-155.74Zm57.293-112.545a18.053,18.053,0,0,0-8.177,1.776L7.129-201.362c-4.5,2.37-4.5,6.247,0,8.618l66.48,35.02a18.043,18.043,0,0,0,8.184,1.778,18.069,18.069,0,0,0,8.179-1.776l123.745-65.147c4.5-2.37,4.5-6.248,0-8.618l-66.477-35.02A18.057,18.057,0,0,0,139.054-268.285Z" fill="#efeff1"/>
      <path id="Path_3777" data-name="Path 3777" d="M81.792-155.946a18.043,18.043,0,0,1-8.184-1.778l-66.48-35.02c-4.5-2.371-4.5-6.248,0-8.618l123.748-65.147a18.053,18.053,0,0,1,8.177-1.776,18.057,18.057,0,0,1,8.186,1.778l66.477,35.02c4.5,2.37,4.5,6.248,0,8.618L89.972-157.722A18.069,18.069,0,0,1,81.792-155.946ZM138.937-268.2a18.033,18.033,0,0,0-8.159,1.772L7.357-201.449c-4.488,2.362-4.491,6.229,0,8.594L73.66-157.926a18.01,18.01,0,0,0,8.161,1.772,18.026,18.026,0,0,0,8.159-1.77L213.4-222.9c4.489-2.362,4.489-6.229,0-8.593L147.1-266.425A18.01,18.01,0,0,0,138.937-268.2Z" fill="#edecef"/>
      <path id="Path_3778" data-name="Path 3778" d="M81.822-156.154a18.01,18.01,0,0,1-8.161-1.772L7.354-192.855c-4.489-2.365-4.486-6.232,0-8.594l123.421-64.978a18.033,18.033,0,0,1,8.159-1.772,18.01,18.01,0,0,1,8.161,1.774l66.306,34.93c4.489,2.364,4.489,6.231,0,8.593L89.981-157.924A18.026,18.026,0,0,1,81.822-156.154Zm57-111.957a17.958,17.958,0,0,0-8.136,1.766L7.582-201.537c-4.477,2.356-4.477,6.215,0,8.573l66.133,34.835a17.955,17.955,0,0,0,8.141,1.77,17.961,17.961,0,0,0,8.136-1.768l123.1-64.806c4.477-2.358,4.477-6.215,0-8.573l-66.133-34.837A17.945,17.945,0,0,0,138.817-268.111Z" fill="#ebeaed"/>
      <path id="Path_3779" data-name="Path 3779" d="M81.853-156.359a17.955,17.955,0,0,1-8.141-1.77L7.58-192.964c-4.475-2.358-4.475-6.217,0-8.573l123.1-64.808a17.958,17.958,0,0,1,8.136-1.766,17.945,17.945,0,0,1,8.141,1.768l66.133,34.837c4.475,2.358,4.475,6.215,0,8.573L89.99-158.127A17.961,17.961,0,0,1,81.853-156.359ZM138.7-268.024a17.934,17.934,0,0,0-8.114,1.761L7.807-201.626c-4.464,2.352-4.466,6.2,0,8.551l65.957,34.744a17.892,17.892,0,0,0,8.121,1.766A17.9,17.9,0,0,0,90-158.329l122.777-64.637c4.465-2.35,4.465-6.2,0-8.548L146.819-266.26A17.92,17.92,0,0,0,138.7-268.024Z" fill="#e8e7ec"/>
      <path id="Path_3780" data-name="Path 3780" d="M81.885-156.565a17.892,17.892,0,0,1-8.121-1.766L7.807-193.075c-4.466-2.352-4.464-6.2,0-8.551l122.777-64.637a17.934,17.934,0,0,1,8.114-1.761,17.92,17.92,0,0,1,8.121,1.764l65.959,34.746c4.463,2.352,4.463,6.2,0,8.548L90-158.329A17.9,17.9,0,0,1,81.885-156.565Zm56.7-111.373a17.866,17.866,0,0,0-8.094,1.758L8.033-201.714c-4.452,2.346-4.452,6.182,0,8.528l65.783,34.654a17.866,17.866,0,0,0,8.1,1.76,17.853,17.853,0,0,0,8.094-1.758L212.462-223c4.453-2.344,4.453-6.183,0-8.528l-65.783-34.654A17.884,17.884,0,0,0,138.581-267.938Z" fill="#e6e5e9"/>
      <path id="Path_3781" data-name="Path 3781" d="M81.914-156.772a17.866,17.866,0,0,1-8.1-1.76L8.033-193.186c-4.452-2.346-4.452-6.182,0-8.528L130.487-266.18a17.866,17.866,0,0,1,8.094-1.758,17.884,17.884,0,0,1,8.1,1.76l65.783,34.654c4.453,2.345,4.453,6.184,0,8.528L90.008-158.53A17.853,17.853,0,0,1,81.914-156.772ZM138.461-267.85a17.821,17.821,0,0,0-8.071,1.752L8.26-201.8c-4.443,2.337-4.443,6.165,0,8.505l65.61,34.561a17.83,17.83,0,0,0,8.078,1.756,17.83,17.83,0,0,0,8.073-1.754l122.13-64.295c4.441-2.34,4.441-6.166,0-8.506L146.539-266.1A17.82,17.82,0,0,0,138.461-267.85Z" fill="#e3e3e8"/>
      <path id="Path_3782" data-name="Path 3782" d="M81.946-156.978a17.83,17.83,0,0,1-8.078-1.756L8.258-193.295c-4.441-2.34-4.441-6.168,0-8.505l122.13-64.3a17.821,17.821,0,0,1,8.071-1.752,17.82,17.82,0,0,1,8.078,1.754l65.61,34.563c4.441,2.34,4.441,6.166,0,8.506L90.019-158.732A17.83,17.83,0,0,1,81.946-156.978Zm56.4-110.785a17.784,17.784,0,0,0-8.051,1.747L8.486-201.889c-4.43,2.332-4.43,6.149,0,8.483l65.439,34.471a17.8,17.8,0,0,0,8.055,1.749,17.784,17.784,0,0,0,8.051-1.747L211.834-223.06c4.43-2.332,4.43-6.149,0-8.483L146.4-266.014A17.8,17.8,0,0,0,138.342-267.763Z" fill="#e0dfe6"/>
      <path id="Path_3783" data-name="Path 3783" d="M81.977-157.186a17.8,17.8,0,0,1-8.055-1.749L8.483-193.406c-4.428-2.334-4.428-6.151,0-8.483l121.806-64.127a17.784,17.784,0,0,1,8.051-1.747,17.8,17.8,0,0,1,8.055,1.749l65.439,34.471c4.428,2.334,4.428,6.151,0,8.483L90.028-158.933A17.784,17.784,0,0,1,81.977-157.186Zm56.248-110.491a17.75,17.75,0,0,0-8.031,1.743L8.711-201.977c-4.419,2.327-4.419,6.133,0,8.46l65.263,34.38a17.721,17.721,0,0,0,8.035,1.746,17.732,17.732,0,0,0,8.028-1.744l121.484-63.956c4.418-2.327,4.418-6.133,0-8.46l-65.265-34.38A17.723,17.723,0,0,0,138.225-267.677Z" fill="#dddde3"/>
      <path id="Path_3784" data-name="Path 3784" d="M82.009-157.391a17.721,17.721,0,0,1-8.035-1.746L8.711-193.517c-4.419-2.327-4.419-6.133,0-8.46l121.483-63.957a17.75,17.75,0,0,1,8.031-1.743,17.723,17.723,0,0,1,8.033,1.746l65.265,34.38c4.416,2.327,4.416,6.133,0,8.46L90.037-159.135A17.732,17.732,0,0,1,82.009-157.391Zm56.1-110.2a17.666,17.666,0,0,0-8.008,1.74L8.936-202.064c-4.405,2.32-4.407,6.117,0,8.436l65.089,34.29a17.7,17.7,0,0,0,8.013,1.739,17.682,17.682,0,0,0,8.008-1.739l121.161-63.786c4.4-2.319,4.408-6.116,0-8.437l-65.089-34.288A17.691,17.691,0,0,0,138.1-267.591Z" fill="#dad9e0"/>
      <path id="Path_3785" data-name="Path 3785" d="M82.038-157.6a17.7,17.7,0,0,1-8.013-1.739L8.936-193.628c-4.407-2.319-4.405-6.116,0-8.436L130.1-265.851a17.666,17.666,0,0,1,8.008-1.74,17.691,17.691,0,0,1,8.013,1.742l65.089,34.288c4.408,2.321,4.4,6.118,0,8.437L90.046-159.338A17.682,17.682,0,0,1,82.038-157.6Zm55.948-109.9A17.615,17.615,0,0,0,130-265.767L9.164-202.152c-4.4,2.313-4.4,6.1,0,8.415l64.916,34.195A17.627,17.627,0,0,0,82.07-157.8a17.6,17.6,0,0,0,7.985-1.735l120.839-63.615c4.394-2.313,4.394-6.1,0-8.415l-64.916-34.2A17.638,17.638,0,0,0,137.986-267.5Z" fill="#d6d7de"/>
      <path id="Path_3786" data-name="Path 3786" d="M82.07-157.8a17.627,17.627,0,0,1-7.992-1.737L9.161-193.737c-4.394-2.315-4.394-6.1,0-8.415L130-265.767a17.615,17.615,0,0,1,7.986-1.735,17.638,17.638,0,0,1,7.992,1.735l64.916,34.2c4.394,2.315,4.394,6.1,0,8.415L90.055-159.54A17.6,17.6,0,0,1,82.07-157.8Zm55.8-109.611a17.624,17.624,0,0,0-7.966,1.729L9.389-202.24c-4.383,2.306-4.385,6.083,0,8.392l64.742,34.105a17.585,17.585,0,0,0,7.972,1.731,17.588,17.588,0,0,0,7.965-1.729l120.513-63.447c4.382-2.306,4.384-6.083,0-8.392l-64.743-34.1A17.608,17.608,0,0,0,137.867-267.416Z" fill="#d2d2db"/>
      <path id="Path_3787" data-name="Path 3787" d="M82.1-158.012a17.585,17.585,0,0,1-7.972-1.731L9.387-193.848c-4.382-2.309-4.38-6.086,0-8.392L129.9-265.687a17.624,17.624,0,0,1,7.966-1.729,17.608,17.608,0,0,1,7.971,1.731l64.743,34.1c4.382,2.309,4.38,6.086,0,8.392L90.066-159.741A17.588,17.588,0,0,1,82.1-158.012ZM137.749-267.33A17.536,17.536,0,0,0,129.8-265.6L9.614-202.329c-4.371,2.3-4.371,6.069,0,8.37l64.569,34.014a17.539,17.539,0,0,0,7.95,1.727,17.545,17.545,0,0,0,7.945-1.725l120.19-63.276c4.372-2.3,4.372-6.066,0-8.369L145.7-265.6A17.554,17.554,0,0,0,137.749-267.33Z" fill="#d0d0d8"/>
      <path id="Path_3788" data-name="Path 3788" d="M82.13-158.218a17.539,17.539,0,0,1-7.95-1.727L9.612-193.959c-4.369-2.3-4.369-6.067,0-8.37L129.8-265.6a17.536,17.536,0,0,1,7.945-1.727,17.554,17.554,0,0,1,7.95,1.727l64.569,34.015c4.369,2.3,4.369,6.069,0,8.369L90.075-159.943A17.545,17.545,0,0,1,82.13-158.218Zm55.5-109.023a17.488,17.488,0,0,0-7.922,1.721L9.84-202.415c-4.358,2.294-4.36,6.05,0,8.347l64.4,33.922a17.5,17.5,0,0,0,7.927,1.723,17.493,17.493,0,0,0,7.922-1.721l119.868-63.1c4.358-2.3,4.36-6.053,0-8.347L145.557-265.52A17.5,17.5,0,0,0,137.63-267.241Z" fill="#cbcbd4"/>
      <path id="Path_3789" data-name="Path 3789" d="M82.162-158.423a17.5,17.5,0,0,1-7.927-1.723L9.84-194.068c-4.36-2.3-4.358-6.053,0-8.347l119.868-63.1a17.488,17.488,0,0,1,7.922-1.721,17.5,17.5,0,0,1,7.927,1.721L209.952-231.6c4.36,2.294,4.358,6.05,0,8.347l-119.868,63.1A17.493,17.493,0,0,1,82.162-158.423Zm55.349-108.732a17.421,17.421,0,0,0-7.9,1.717L10.065-202.5c-4.347,2.288-4.347,6.034,0,8.324l64.222,33.831a17.45,17.45,0,0,0,7.907,1.717,17.447,17.447,0,0,0,7.9-1.715l119.544-62.936c4.349-2.288,4.349-6.034,0-8.325l-64.222-33.829A17.421,17.421,0,0,0,137.511-267.155Z" fill="#c7c7d1"/>
      <path id="Path_3790" data-name="Path 3790" d="M82.193-158.631a17.45,17.45,0,0,1-7.907-1.717L10.065-194.179c-4.347-2.29-4.347-6.036,0-8.324l119.546-62.935a17.421,17.421,0,0,1,7.9-1.717,17.421,17.421,0,0,1,7.906,1.719l64.222,33.829c4.347,2.291,4.347,6.037,0,8.325L90.093-160.346A17.447,17.447,0,0,1,82.193-158.631Zm55.2-108.437a17.381,17.381,0,0,0-7.879,1.712L10.292-202.592c-4.335,2.284-4.337,6.02,0,8.3l64.048,33.739a17.385,17.385,0,0,0,7.884,1.714,17.385,17.385,0,0,0,7.88-1.712l119.222-62.764c4.335-2.282,4.337-6.02,0-8.3l-64.049-33.739A17.38,17.38,0,0,0,137.393-267.068Z" fill="#c3c3ce"/>
      <path id="Path_3791" data-name="Path 3791" d="M82.223-158.837a17.385,17.385,0,0,1-7.884-1.714L10.29-194.29c-4.335-2.282-4.333-6.018,0-8.3l119.222-62.764a17.381,17.381,0,0,1,7.879-1.712,17.38,17.38,0,0,1,7.884,1.714l64.049,33.739c4.335,2.282,4.333,6.02,0,8.3L90.1-160.549A17.385,17.385,0,0,1,82.223-158.837ZM137.274-266.98a17.335,17.335,0,0,0-7.859,1.706L10.518-202.68c-4.324,2.278-4.324,6,0,8.281l63.875,33.646a17.356,17.356,0,0,0,7.864,1.709,17.336,17.336,0,0,0,7.859-1.707l118.9-62.595c4.324-2.276,4.324-6,0-8.279l-63.872-33.647A17.357,17.357,0,0,0,137.274-266.98Z" fill="#bfbeca"/>
      <path id="Path_3792" data-name="Path 3792" d="M82.254-159.044a17.356,17.356,0,0,1-7.864-1.709L10.516-194.4c-4.322-2.278-4.322-6,0-8.281l118.9-62.594a17.335,17.335,0,0,1,7.859-1.706,17.357,17.357,0,0,1,7.864,1.708l63.872,33.647c4.324,2.278,4.324,6,0,8.279l-118.9,62.595A17.336,17.336,0,0,1,82.254-159.044Zm54.9-107.85a17.294,17.294,0,0,0-7.836,1.7L10.743-202.767c-4.313,2.27-4.313,5.985,0,8.257l63.7,33.556a17.294,17.294,0,0,0,7.844,1.7,17.3,17.3,0,0,0,7.837-1.7L208.7-223.377c4.311-2.27,4.313-5.984,0-8.256L145-265.189A17.3,17.3,0,0,0,137.154-266.894Z" fill="#bcbcc8"/>
      <path id="Path_3793" data-name="Path 3793" d="M82.286-159.25a17.294,17.294,0,0,1-7.844-1.7l-63.7-33.556c-4.313-2.272-4.313-5.987,0-8.257l118.575-62.424a17.294,17.294,0,0,1,7.836-1.7A17.3,17.3,0,0,1,145-265.189l63.7,33.556c4.313,2.272,4.311,5.986,0,8.256L90.123-160.952A17.3,17.3,0,0,1,82.286-159.25Zm54.751-107.557a17.232,17.232,0,0,0-7.816,1.7L10.969-202.855c-4.3,2.263-4.3,5.97,0,8.234l63.526,33.465a17.261,17.261,0,0,0,7.821,1.7,17.26,17.26,0,0,0,7.816-1.7l118.25-62.254c4.3-2.265,4.3-5.97,0-8.236l-63.528-33.463A17.243,17.243,0,0,0,137.037-266.807Z" fill="#b6b7c5"/>
      <path id="Path_3794" data-name="Path 3794" d="M82.315-159.457a17.261,17.261,0,0,1-7.821-1.7L10.969-194.621c-4.3-2.264-4.3-5.971,0-8.234l118.252-62.254a17.232,17.232,0,0,1,7.816-1.7,17.243,17.243,0,0,1,7.819,1.7l63.528,33.463c4.3,2.266,4.3,5.971,0,8.236L90.132-161.154A17.26,17.26,0,0,1,82.315-159.457Zm54.6-107.264a17.2,17.2,0,0,0-7.794,1.694L11.2-202.943c-4.29,2.257-4.29,5.953,0,8.213l63.354,33.373a17.208,17.208,0,0,0,7.8,1.694,17.194,17.194,0,0,0,7.794-1.692l117.928-62.086c4.287-2.257,4.29-5.951,0-8.211l-63.355-33.373A17.186,17.186,0,0,0,136.918-266.721Z" fill="#b2b2c1"/>
      <path id="Path_3795" data-name="Path 3795" d="M82.347-159.663a17.208,17.208,0,0,1-7.8-1.694L11.194-194.73c-4.288-2.26-4.288-5.956,0-8.213l117.928-62.084a17.2,17.2,0,0,1,7.794-1.694,17.186,17.186,0,0,1,7.8,1.7l63.355,33.373c4.288,2.26,4.285,5.954,0,8.211L90.141-161.355A17.194,17.194,0,0,1,82.347-159.663ZM136.8-266.633a17.185,17.185,0,0,0-7.774,1.688L11.421-203.03c-4.277,2.251-4.279,5.936,0,8.189L74.6-161.561a17.127,17.127,0,0,0,7.778,1.692,17.13,17.13,0,0,0,7.771-1.69l117.605-61.912c4.277-2.252,4.277-5.938,0-8.191l-63.178-33.281A17.176,17.176,0,0,0,136.8-266.633Z" fill="#aeaebd"/>
      <path id="Path_3796" data-name="Path 3796" d="M82.378-159.869a17.127,17.127,0,0,1-7.778-1.692l-63.181-33.28c-4.277-2.253-4.274-5.938,0-8.189l117.6-61.915a17.185,17.185,0,0,1,7.774-1.688,17.176,17.176,0,0,1,7.778,1.69l63.178,33.281c4.277,2.253,4.277,5.939,0,8.191L90.15-161.559A17.13,17.13,0,0,1,82.378-159.869Zm54.3-106.677a17.1,17.1,0,0,0-7.751,1.684L11.647-203.118c-4.265,2.245-4.265,5.921,0,8.166l63.005,33.19a17.107,17.107,0,0,0,7.756,1.686,17.13,17.13,0,0,0,7.753-1.684L207.442-223.5c4.266-2.245,4.266-5.919,0-8.166l-63.005-33.19A17.1,17.1,0,0,0,136.679-266.546Z" fill="#a9a9b8"/>
      <path id="Path_3797" data-name="Path 3797" d="M82.408-160.076a17.107,17.107,0,0,1-7.756-1.686l-63.005-33.19c-4.265-2.245-4.265-5.921,0-8.166l117.281-61.744a17.1,17.1,0,0,1,7.751-1.684,17.1,17.1,0,0,1,7.758,1.686l63.005,33.19c4.266,2.247,4.266,5.921,0,8.166L90.161-161.76A17.13,17.13,0,0,1,82.408-160.076ZM136.562-266.46a17.066,17.066,0,0,0-7.731,1.68L11.872-203.207c-4.252,2.239-4.254,5.9,0,8.146l62.832,33.1a17.065,17.065,0,0,0,7.735,1.682,17.044,17.044,0,0,0,7.731-1.68l116.957-61.573c4.254-2.239,4.254-5.9,0-8.143l-62.832-33.1A17.063,17.063,0,0,0,136.562-266.46Z" fill="#a3a3b5"/>
      <path id="Path_3798" data-name="Path 3798" d="M82.439-160.282a17.065,17.065,0,0,1-7.735-1.682l-62.832-33.1c-4.254-2.241-4.252-5.907,0-8.146L128.831-264.78a17.066,17.066,0,0,1,7.731-1.68,17.063,17.063,0,0,1,7.735,1.682l62.832,33.1c4.252,2.238,4.252,5.9,0,8.143L90.17-161.962A17.044,17.044,0,0,1,82.439-160.282Zm54-106.089a17.017,17.017,0,0,0-7.709,1.673L12.1-203.295c-4.243,2.235-4.243,5.888,0,8.123l62.658,33.007a17.022,17.022,0,0,0,7.715,1.675,17.018,17.018,0,0,0,7.708-1.673l116.634-61.4c4.243-2.235,4.243-5.888,0-8.123L144.155-264.7A17,17,0,0,0,136.443-266.371Z" fill="#9e9fb1"/>
      <path id="Path_3799" data-name="Path 3799" d="M82.471-160.49a17.022,17.022,0,0,1-7.715-1.675L12.1-195.172c-4.241-2.235-4.241-5.888,0-8.123l116.634-61.4a17.017,17.017,0,0,1,7.709-1.673,17,17,0,0,1,7.712,1.675l62.661,33.007c4.24,2.235,4.24,5.888,0,8.123l-116.634,61.4A17.018,17.018,0,0,1,82.471-160.49Zm53.852-105.795a17,17,0,0,0-7.688,1.669L12.325-203.381c-4.229,2.226-4.231,5.871,0,8.1l62.485,32.916A16.97,16.97,0,0,0,82.5-160.7a16.982,16.982,0,0,0,7.688-1.669L206.5-223.6c4.23-2.226,4.23-5.871,0-8.1l-62.484-32.917A16.977,16.977,0,0,0,136.323-266.285Z" fill="#9899ab"/>
      <path id="Path_3800" data-name="Path 3800" d="M82.5-160.7a16.97,16.97,0,0,1-7.693-1.672L12.323-195.283c-4.229-2.227-4.227-5.872,0-8.1l116.31-61.235a17,17,0,0,1,7.688-1.669,16.977,16.977,0,0,1,7.693,1.671L206.5-231.7c4.23,2.227,4.23,5.872,0,8.1L90.188-162.364A16.982,16.982,0,0,1,82.5-160.7Zm53.7-105.5a16.923,16.923,0,0,0-7.666,1.665L12.55-203.47c-4.218,2.221-4.218,5.855,0,8.078l62.311,32.824a16.937,16.937,0,0,0,7.67,1.665,16.943,16.943,0,0,0,7.665-1.663l115.99-61.064c4.218-2.22,4.218-5.855,0-8.077l-62.311-32.824A16.9,16.9,0,0,0,136.2-266.2Z" fill="#9493a7"/>
      <path id="Path_3801" data-name="Path 3801" d="M82.532-160.9a16.937,16.937,0,0,1-7.67-1.665L12.55-195.392c-4.218-2.223-4.218-5.857,0-8.078l115.988-61.064A16.923,16.923,0,0,1,136.2-266.2a16.9,16.9,0,0,1,7.672,1.668l62.311,32.824c4.218,2.222,4.218,5.857,0,8.077L90.2-162.566A16.943,16.943,0,0,1,82.532-160.9ZM136.086-266.11a16.89,16.89,0,0,0-7.645,1.659L12.776-203.558c-4.207,2.214-4.207,5.839,0,8.055l62.138,32.731a16.862,16.862,0,0,0,7.65,1.664,16.861,16.861,0,0,0,7.645-1.661l115.664-60.894c4.206-2.214,4.206-5.838,0-8.052l-62.138-32.734A16.879,16.879,0,0,0,136.086-266.11Z" fill="#8c8ca1"/>
      <path id="Path_3802" data-name="Path 3802" d="M82.563-161.108a16.862,16.862,0,0,1-7.65-1.664L12.776-195.5c-4.207-2.216-4.207-5.841,0-8.055l115.665-60.893a16.89,16.89,0,0,1,7.645-1.659,16.879,16.879,0,0,1,7.65,1.661l62.138,32.734c4.2,2.214,4.2,5.838,0,8.052L90.208-162.769A16.861,16.861,0,0,1,82.563-161.108Zm53.4-104.916a16.826,16.826,0,0,0-7.623,1.655L13-203.647c-4.193,2.211-4.193,5.825,0,8.033l61.964,32.641a16.816,16.816,0,0,0,7.627,1.657,16.831,16.831,0,0,0,7.625-1.655l115.341-60.722c4.2-2.208,4.2-5.823,0-8.033L143.6-264.367A16.854,16.854,0,0,0,135.967-266.024Z" fill="#88889e"/>
      <path id="Path_3803" data-name="Path 3803" d="M82.592-161.316a16.816,16.816,0,0,1-7.627-1.657L13-195.614c-4.193-2.208-4.193-5.822,0-8.033l115.343-60.722a16.826,16.826,0,0,1,7.623-1.655,16.854,16.854,0,0,1,7.63,1.657l61.964,32.641c4.193,2.21,4.193,5.825,0,8.033L90.217-162.971A16.831,16.831,0,0,1,82.592-161.316ZM135.85-265.938a16.788,16.788,0,0,0-7.6,1.651L13.229-203.733c-4.184,2.2-4.184,5.806,0,8.008l61.791,32.551a16.8,16.8,0,0,0,7.607,1.652,16.805,16.805,0,0,0,7.6-1.65l115.019-60.552c4.182-2.2,4.182-5.808,0-8.01l-61.79-32.551A16.777,16.777,0,0,0,135.85-265.938Z" fill="#838299"/>
      <path id="Path_3804" data-name="Path 3804" d="M82.624-161.522a16.8,16.8,0,0,1-7.607-1.652L13.226-195.725c-4.182-2.2-4.182-5.806,0-8.008l115.018-60.554a16.788,16.788,0,0,1,7.6-1.651,16.777,16.777,0,0,1,7.6,1.653l61.79,32.551c4.182,2.2,4.182,5.808,0,8.01L90.226-163.172A16.805,16.805,0,0,1,82.624-161.522ZM135.73-265.851a16.753,16.753,0,0,0-7.582,1.646L13.454-203.821c-4.171,2.195-4.171,5.789,0,7.987l61.615,32.458a16.75,16.75,0,0,0,7.587,1.649,16.728,16.728,0,0,0,7.58-1.647l114.7-60.383c4.171-2.2,4.171-5.79,0-7.987L143.315-264.2A16.764,16.764,0,0,0,135.73-265.851Z" fill="#7b7c94"/>
      <path id="Path_3805" data-name="Path 3805" d="M82.655-161.727a16.75,16.75,0,0,1-7.587-1.649L13.454-195.834c-4.171-2.2-4.171-5.792,0-7.987L128.148-264.2a16.753,16.753,0,0,1,7.582-1.646,16.764,16.764,0,0,1,7.585,1.648l61.617,32.459c4.171,2.2,4.171,5.791,0,7.987l-114.7,60.383A16.728,16.728,0,0,1,82.655-161.727Zm52.956-104.036a16.7,16.7,0,0,0-7.56,1.641L13.679-203.91c-4.16,2.19-4.16,5.775,0,7.965l61.441,32.368a16.713,16.713,0,0,0,7.566,1.642,16.694,16.694,0,0,0,7.557-1.64l114.373-60.213c4.159-2.19,4.159-5.775,0-7.964L143.175-264.12A16.685,16.685,0,0,0,135.611-265.763Z" fill="#767690"/>
      <path id="Path_3806" data-name="Path 3806" d="M82.687-161.935a16.713,16.713,0,0,1-7.566-1.642L13.679-195.945c-4.16-2.19-4.16-5.775,0-7.965l114.372-60.212a16.7,16.7,0,0,1,7.56-1.641,16.685,16.685,0,0,1,7.564,1.643l61.444,32.368c4.157,2.189,4.157,5.774,0,7.964L90.244-163.575A16.694,16.694,0,0,1,82.687-161.935Zm52.805-103.742a16.658,16.658,0,0,0-7.537,1.637L13.9-204c-4.146,2.183-4.148,5.756,0,7.942l61.27,32.275a16.645,16.645,0,0,0,7.542,1.639,16.661,16.661,0,0,0,7.539-1.637L204.3-223.819c4.149-2.185,4.149-5.758,0-7.944l-61.271-32.275A16.652,16.652,0,0,0,135.492-265.677Z" fill="#70718b"/>
      <path id="Path_3807" data-name="Path 3807" d="M82.716-162.14a16.645,16.645,0,0,1-7.542-1.639L13.9-196.054c-4.148-2.186-4.146-5.759,0-7.942L127.955-264.04a16.658,16.658,0,0,1,7.537-1.637,16.652,16.652,0,0,1,7.543,1.639l61.271,32.275c4.146,2.186,4.146,5.759,0,7.944L90.256-163.777A16.661,16.661,0,0,1,82.716-162.14Zm52.658-103.45a16.6,16.6,0,0,0-7.516,1.632L14.132-204.084c-4.137,2.177-4.137,5.74,0,7.919l61.1,32.183a16.6,16.6,0,0,0,7.521,1.634,16.59,16.59,0,0,0,7.517-1.632L203.99-223.852c4.135-2.177,4.135-5.74,0-7.919L142.9-263.956A16.605,16.605,0,0,0,135.374-265.59Z" fill="#696985"/>
      <path id="Path_3808" data-name="Path 3808" d="M82.748-162.348a16.6,16.6,0,0,1-7.521-1.634l-61.1-32.183c-4.135-2.179-4.135-5.742,0-7.919l113.726-59.874a16.6,16.6,0,0,1,7.516-1.632,16.605,16.605,0,0,1,7.522,1.634l61.094,32.185c4.135,2.179,4.135,5.742,0,7.919L90.265-163.98A16.59,16.59,0,0,1,82.748-162.348ZM135.255-265.5a16.55,16.55,0,0,0-7.5,1.628l-113.4,59.7c-4.123,2.171-4.126,5.726,0,7.9l60.923,32.092a16.525,16.525,0,0,0,7.5,1.63,16.541,16.541,0,0,0,7.5-1.628l113.4-59.7c4.125-2.171,4.125-5.725,0-7.9l-60.923-32.095A16.557,16.557,0,0,0,135.255-265.5Z" fill="#626281"/>
      <path id="Path_3809" data-name="Path 3809" d="M82.777-162.554a16.525,16.525,0,0,1-7.5-1.63L14.355-196.276c-4.123-2.171-4.121-5.726,0-7.9l113.4-59.7a16.55,16.55,0,0,1,7.5-1.628,16.557,16.557,0,0,1,7.5,1.628l60.923,32.095c4.123,2.171,4.123,5.725,0,7.9l-113.4,59.7A16.541,16.541,0,0,1,82.777-162.554Zm52.359-102.861a16.474,16.474,0,0,0-7.474,1.624L14.583-204.261c-4.112,2.165-4.112,5.709,0,7.874l60.747,32a16.508,16.508,0,0,0,7.479,1.624,16.508,16.508,0,0,0,7.474-1.622l113.079-59.532c4.112-2.165,4.112-5.708,0-7.874l-60.75-32A16.488,16.488,0,0,0,135.136-265.415Z" fill="#5c5c7a"/>
      <path id="Path_3810" data-name="Path 3810" d="M82.809-162.761a16.508,16.508,0,0,1-7.479-1.624l-60.747-32c-4.112-2.165-4.112-5.709,0-7.874l113.079-59.53a16.474,16.474,0,0,1,7.474-1.624,16.488,16.488,0,0,1,7.478,1.624l60.75,32c4.11,2.166,4.11,5.709,0,7.874L90.283-164.383A16.508,16.508,0,0,1,82.809-162.761Zm52.209-102.568a16.457,16.457,0,0,0-7.453,1.62L14.808-204.348c-4.1,2.159-4.1,5.691,0,7.852l60.574,31.909a16.472,16.472,0,0,0,7.458,1.62,16.429,16.429,0,0,0,7.451-1.618l112.756-59.361c4.1-2.159,4.1-5.693,0-7.852l-60.574-31.911A16.467,16.467,0,0,0,135.018-265.329Z" fill="#565677"/>
      <path id="Path_3811" data-name="Path 3811" d="M82.84-162.967a16.472,16.472,0,0,1-7.458-1.62L14.808-196.5c-4.1-2.161-4.1-5.693,0-7.852l112.757-59.361a16.457,16.457,0,0,1,7.453-1.62,16.467,16.467,0,0,1,7.456,1.62L203.048-231.8c4.1,2.159,4.1,5.693,0,7.852L90.292-164.585A16.429,16.429,0,0,1,82.84-162.967Z" fill="#505070"/>
      <path id="Path_3812" data-name="Path 3812" d="M15.033-196.607c-4.087-2.153-4.087-5.676,0-7.829l112.432-59.191a17.925,17.925,0,0,1,14.867,0l60.4,31.819c4.09,2.155,4.087,5.676,0,7.829L90.3-164.786a17.93,17.93,0,0,1-14.869,0Z" fill="#48486a"/>
      <g id="Group_1662" data-name="Group 1662" clip-path="url(#clip-path-5)">
        <g id="Group_1661" data-name="Group 1661" transform="translate(5.635 -214.666)">
          <path id="Path_3813" data-name="Path 3813" d="M-5.635-466.546h456.35V214.666H-5.635Z" fill="url(#linear-gradient-2)"/>
        </g>
      </g>
      <path id="Path_3815" data-name="Path 3815" d="M8.932-199.936c-4.4-2.319-4.4-6.11,0-8.427l121.015-63.709c4.4-2.317,11.6-2.317,16,0l65.013,34.247c4.4,2.316,4.4,6.11,0,8.427L89.947-165.687c-4.4,2.317-11.6,2.315-16,0Z" fill="#f5f7fb"/>
      <path id="Path_3816" data-name="Path 3816" d="M39.173-198.58c-8.785-4.627-8.785-12.2,0-16.829s23.161-4.628,31.947,0,8.788,12.2,0,16.829S47.959-193.952,39.173-198.58Z" fill="#f5d5aa"/>
      <path id="Path_3817" data-name="Path 3817" d="M59.664-201.526,49-201.844a1.76,1.76,0,0,1-1.787-1.74,1.82,1.82,0,0,1,1.906-1.63L56.44-205l1.424-9.891a1.826,1.826,0,0,1,2.073-1.451,1.722,1.722,0,0,1,1.591,1.891Z" fill="#535367"/>
      <path id="Path_3818" data-name="Path 3818" d="M70.13-223.192l7.99,4.311,72.892-38.4-8.089-4.26Z" fill="#dce1f0"/>
      <path id="Path_3819" data-name="Path 3819" d="M86.064-214.553l7.99,4.313,72.893-38.4-8.087-4.26Z" fill="#dce1f0"/>
      <path id="Path_3820" data-name="Path 3820" d="M62.491-185.565l7.988,4.313L182.882-240l-8.087-4.261Z" fill="#dce1f0"/>
      <path id="Path_3821" data-name="Path 3821" d="M78.426-176.924l7.99,4.311,112.4-58.747-8.089-4.26Z" fill="#dce1f0"/>
      <path id="Path_3822" data-name="Path 3822" d="M227.83-383.432V-318l57.525,33.21v-66.423Z" fill="#f9e6cc"/>
      <path id="Path_3823" data-name="Path 3823" d="M258.179-333.463v-5.395a13.081,13.081,0,0,0-1.511-1.553c-2.118-1.612-2.833.535-2.833,4.282,0,3.544.15,6.8,1.736,8.015C257.046-326.988,258.179-329.52,258.179-333.463Zm5.633,5.943c0,3.8.568,5.875,1.7,6.74,1.815,1.383,3.029-2.438,3.029-6.182a27.361,27.361,0,0,0-10.548-21.726c-7.331-5.594-13.339-4.484-13.339,7.249,0,7.591,2.529,16.165,10.124,21.961a24.722,24.722,0,0,0,7.369,3.724l1.4,5.91a21.773,21.773,0,0,1-9.034-4.194c-7.03-5.365-14.363-15.5-14.363-30.632,0-15.082,8.279-16.955,18.253-9.344,8.13,6.2,14.631,17.9,14.631,30.182,0,7.892-3.365,11.916-7.6,8.688a15.833,15.833,0,0,1-5.744-9.426c-.946,2.722-2.5,3.14-5.026,1.208-4.65-3.544-6.8-9.784-6.8-16.775,0-7.239,3.59-9.693,8.88-5.659a81.859,81.859,0,0,1,7.069,6.69Z" fill="#f5d5aa"/>
    </g>
  </g>
</svg>
